<svg xmlns="http://www.w3.org/2000/svg" width="2462.83" height="4455.612" viewBox="0 0 2462.83 4455.612"><g transform="translate(271.414 -2200.796)"><g transform="translate(3269.586 -21908.805)" fill="none" stroke-linecap="round" stroke-linejoin="round"><path d="M-2920.78,28555.213v-62.441h18.64c46.6-1.863,53.125-8.393,53.125-55v-172.424c0-38.211-2.795-51.262-13.043-65.242-12.118-14.914-32.622-24.23-55.927-24.23-32.622,0-64.312,16.777-85.746,45.664-20.5,27.033-27.025,51.262-27.025,103.463v112.77c0,46.6,6.521,53.133,53.125,55h18.64v62.441h-266.562v-62.441h29.826c46.6-1.863,53.125-8.393,53.125-55v-202.25c0-46.6-6.521-53.125-53.125-54.988h-29.826v-62.447h194.8v76.43c57.783-68.039,97.857-90.4,157.511-90.4,39.2,0,79.3,14.268,102.833,36.7-19.24-65.5-29.2-140.811-29.2-225.123,0-82.211,9.461-155.836,27.74-220.182-16.711,20.908-42.188,33.439-72.673,33.439-48.187,0-79.92-28.207-79.92-71.691,0-39.961,19.98-62.3,70.518-78.746-21.155-7.059-39.96-11.76-51.713-11.76-31.733,0-70.518,24.689-95.206,61.123-23.506,35.258-37.609,89.322-37.609,145.736v149.27c0,57.588,8.227,66.99,67,69.342h58.765v78.752h-371.406v-78.752h37.609c58.772-3.525,67-11.754,67-69.342V27667.83c0-58.764-8.227-66.99-67-69.342h-37.609v-78.752h245.643v82.277c44.661-70.523,85.8-97.557,149.269-97.557a174.241,174.241,0,0,1,19.243,1.053c-264.445-81.934-430.151-318.756-430.151-639.3,0-239.842,100.341-438.854,262.611-563.094H-3531v-238.957h122.61c9.546.166,18.16.252,26.33.252,20.768,0,38.125-.537,53.067-1.641a285.98,285.98,0,0,0,41.486-5.7c12.248-2.746,22.488-6.314,31.3-10.916a83.147,83.147,0,0,0,12.254-7.775,73.769,73.769,0,0,0,10.234-9.531c11.982-13.494,19.65-32.068,24.122-58.449a381.628,381.628,0,0,0,4.407-43.486c.788-15.143,1.161-32.477,1.161-54.543V24639.885c0-22.467-.373-40.119-1.161-55.541a394.412,394.412,0,0,0-4.415-44.244c-4.472-26.824-12.14-45.693-24.136-59.4a74.67,74.67,0,0,0-10.234-9.66,83.666,83.666,0,0,0-12.262-7.891c-8.807-4.65-19.048-8.262-31.3-11.043a283.676,283.676,0,0,0-41.494-5.754c-14.935-1.111-32.3-1.648-53.082-1.648-8.12,0-16.712.078-26.272.244H-3531V24206h449.606v12.957c0,4.43-.279,7.123-1.756,8.68-1.369,1.439-3.748,1.971-8.8,1.971-.458,0-.953,0-1.569-.016h-7.274v13.258h66.6v-13.258h-8.765c-.595.016-1.132.016-1.6.016a29.126,29.126,0,0,1-5.7-.4,5.949,5.949,0,0,1-3.239-1.568c-1.5-1.557-1.784-4.25-1.784-8.68V24206h53.92v12.957c0,4.43-.28,7.123-1.777,8.68a5.974,5.974,0,0,1-3.239,1.568,29.227,29.227,0,0,1-5.7.4c-.473,0-.975,0-1.6-.016h-8.772v13.258h66.612v-13.258h-7.281c-.58.016-1.111.016-1.569.016-5.045,0-7.432-.531-8.793-1.971-1.483-1.557-1.763-4.25-1.763-8.68V24206h45.708v14.879c0,4.178-.287,6.721-1.813,8.219-1.548,1.512-4.407,1.906-8.815,2.072h-6.715v11.68h56.156v-11.68h-5.6c-4.415-.166-7.274-.561-8.815-2.072s-1.82-4.041-1.82-8.219V24206h45.213a75.521,75.521,0,0,0,10.2,3.025l13.624,2.959c10.993,2.443,15.479,5.576,15.479,10.814a8.919,8.919,0,0,1-4.264,7.654c-2.773,1.834-6.722,2.809-11.409,2.809a34.118,34.118,0,0,1-15.107-3.318,23.14,23.14,0,0,1-8.7-7.209c-2.135-2.959-3.827-6.758-5.482-12.318h-13.616v33.48h12.312l3.361-7.324c6.873,4.064,11.151,6.148,15.25,7.432s8.277,1.807,14.412,1.807a55.9,55.9,0,0,0,14.827-1.836,33.229,33.229,0,0,0,11.151-5.266,23.188,23.188,0,0,0,7.023-8.342,24.714,24.714,0,0,0,2.444-11.059,21.284,21.284,0,0,0-4.092-13.309h25.369v11.217a58.316,58.316,0,0,0,.953,12.182,21.644,21.644,0,0,0,3.332,7.869,18.115,18.115,0,0,0,7.7,6.428,27.739,27.739,0,0,0,11.337,2.115,30.839,30.839,0,0,0,13.688-2.811,18.634,18.634,0,0,0,8.514-8.168,30.281,30.281,0,0,0,3.239-9.727,91.1,91.1,0,0,0,.867-14.689V24206h12.133a44.406,44.406,0,0,0,4.579,16.555,38.612,38.612,0,0,0,10.205,12.541,45.7,45.7,0,0,0,15.221,7.941,66.02,66.02,0,0,0,19.615,2.773c13.7,0,25.541-3.756,34.248-10.865a39.107,39.107,0,0,0,10.169-12.555,42.937,42.937,0,0,0,4.5-16.391h26.645v14.879c0,4.148-.287,6.678-1.82,8.154s-4.271,1.877-8.815,2.137h-5.97v11.68h58.958v-11.68h-9.331c-4.414-.166-7.267-.561-8.815-2.072-1.526-1.5-1.82-4.041-1.82-8.219V24206H-2488l17.644,36.85c-4.608,10.535-8.12,16.67-11.731,20.512a17.269,17.269,0,0,1-5.876,4.227,17.462,17.462,0,0,1-6.837,1.24,10.893,10.893,0,0,1-4.8-.852,16.879,16.879,0,0,1-4.529-3.334h.014c4.529,0,7.969-.873,10.226-2.594s3.383-4.293,3.383-7.7a10.881,10.881,0,0,0-3.64-8.232,13.742,13.742,0,0,0-9.238-3.27,16.571,16.571,0,0,0-6.163,1.125,14.117,14.117,0,0,0-4.844,3.168,14.187,14.187,0,0,0-3.153,4.9,17.322,17.322,0,0,0-1.132,6.32,19.88,19.88,0,0,0,1.949,8.7,20.755,20.755,0,0,0,5.418,6.908,25.516,25.516,0,0,0,8.213,4.551,32.316,32.316,0,0,0,10.348,1.633,30.983,30.983,0,0,0,12.118-2.105,28.56,28.56,0,0,0,10.2-7.439,73.958,73.958,0,0,0,9.818-14.434c3.253-5.92,6.736-13.266,10.957-23.1l11.8-27.082h29.232v238.951h-147.764c-9.725-.166-18.475-.244-26.752-.244-20.575,0-37.839.508-52.781,1.547a310.045,310.045,0,0,0-41.737,5.391c-12.427,2.6-22.868,5.977-31.905,10.318a89.874,89.874,0,0,0-12.642,7.346,77.417,77.417,0,0,0-10.642,9c-13.33,13.58-21.707,32.5-26.358,59.561a352.731,352.731,0,0,0-4.328,45.039c-.659,15.932-.774,34.035-.358,56.975v462.184h908.6v-462.184c.416-22.947.3-41.051-.358-56.967a354.258,354.258,0,0,0-4.328-45.047c-4.658-27.055-13.036-45.973-26.372-59.555a76.417,76.417,0,0,0-10.642-9,89.531,89.531,0,0,0-12.641-7.354c-9.044-4.342-19.478-7.717-31.9-10.318a309.738,309.738,0,0,0-41.737-5.391c-14.956-1.039-32.22-1.547-52.781-1.547-8.27,0-17.02.078-26.745.244h-147.764V24206H-1088.17v238.951h-122.61c-9.56-.166-18.16-.244-26.279-.244-20.783,0-38.147.537-53.082,1.648a284,284,0,0,0-41.5,5.746c-12.255,2.781-22.5,6.393-31.3,11.051a82.941,82.941,0,0,0-12.262,7.891,73.926,73.926,0,0,0-10.234,9.66c-11.989,13.7-19.657,32.572-24.129,59.4a394,394,0,0,0-4.407,44.244c-.8,15.416-1.161,33.066-1.161,55.541v1232.486c0,22.072.365,39.4,1.161,54.543a379.549,379.549,0,0,0,4.414,43.48c4.472,26.387,12.14,44.953,24.122,58.455a74.2,74.2,0,0,0,10.234,9.525,83.047,83.047,0,0,0,12.262,7.781c8.807,4.594,19.041,8.17,31.289,10.916a286.268,286.268,0,0,0,41.486,5.7c14.935,1.1,32.292,1.641,53.06,1.641,8.17,0,16.784-.086,26.329-.252h122.61v238.957H-1436.6V27186.4c0,84,11.76,95.764,95.772,99.125h52.085V27398.1h-489.531v306.543h180.665v82.227c62.169-73.2,105.3-97.27,169.471-97.27,43.128,0,87.251,16.047,112.319,41.115s34.1,61.172,34.1,132.369v185.525c0,50.143,7.016,57.158,57.159,59.166h28.078v67.191h-282.794v-67.191h20.052c50.143-2.008,57.167-9.023,57.167-59.166v-185.525c0-41.113-3.01-55.152-14.039-70.193-13.043-16.047-35.1-26.072-60.169-26.072-35.1,0-69.2,18.053-92.26,49.141-22.065,29.08-29.081,55.152-29.081,111.309v121.342c0,50.143,7.016,57.158,57.159,59.166h20.059v67.191h-257.477c2.957,82.313,23.855,94.967,120.369,98.826h59.331v141.967h-434.385v-173.75c-86.878,152.564-171.636,203.418-332.672,203.418-175.346,0-303.465-78.125-373.435-221.812,1.023,12.289,1.491,26.1,1.491,41.734v172.424c0,46.6,6.521,53.133,53.125,55h26.1v62.441Zm350.681-649c0,239.443,96.209,405.088,289.631,405.088,158.922,0,247.915-168.883,247.915-395.615s-88.993-407.324-247.915-407.324C-2470.615,27508.363-2570.1,27679.482-2570.1,27906.215Zm794.985,201.563c50.143-2.008,57.159-9.023,57.159-59.166V27831c0-50.137-7.016-57.16-57.159-59.166h-3.16v335.947Zm-975.4-477.557q0,1.916-.057,3.8,22.8-54.905,55.682-98.238a731.554,731.554,0,0,1-128.663-17.732C-2779.119,27538.268-2750.513,27579.381-2750.513,27630.221Zm717.96-42.969v-317.846c0-85.449-9.65-111.627-68.965-120.783-25.612,89.557-57.642,146.291-110.919,210.994q-18.279,20.563-37.622,38.588C-2157.948,27420.957-2095.819,27477.7-2032.553,27587.252Zm-1005.864-742.85c0,332.572,155.382,531.568,411.625,531.568,125.4,0,239.889-51.8,305.311-136.3,40.892-54.523,46.861-106.322,76.845-228.988h2.308v-8.264h464.054v283.1h40.92c85.689-3.361,97.449-15.121,97.449-99.125v-697.277c0-84.014-11.76-95.773-97.449-99.135h-50.4v-86.871h-374.482a394.141,394.141,0,0,1,105.183,268.684c0,114.49-73.606,190.82-182.643,190.82-79.3,0-138.319-49.555-148.366-123.836a172.9,172.9,0,0,1-1.562-23.369c0-81.775,43.615-117.451,149.928-136.535-49.068-79.053-76.33-111.531-136.305-138.791-48.9-24.449-120.56-34.2-186.733-36.973h-75.9C-2898.812,26317.865-3038.417,26514.256-3038.417,26844.4Zm767.58-623.98a411.663,411.663,0,0,1,60.284,38.623v-194.887h147.764c9.71.166,18.468.252,26.781.252,21.119,0,38.77-.537,53.956-1.641a294.8,294.8,0,0,0,42.153-5.7c12.441-2.746,22.832-6.314,31.776-10.916a84.721,84.721,0,0,0,12.434-7.775,74.067,74.067,0,0,0,10.37-9.531c12.147-13.486,19.9-32.062,24.416-58.449,3.934-23,5.619-52.314,5.619-98.029v-518.777h-908.6v518.777c0,22.094.373,39.422,1.168,54.543a376.717,376.717,0,0,0,4.45,43.48c4.515,26.387,12.276,44.961,24.423,58.455a74.468,74.468,0,0,0,10.37,9.525,84.628,84.628,0,0,0,12.441,7.781c8.937,4.594,19.328,8.17,31.769,10.916a295.09,295.09,0,0,0,42.153,5.7c15.186,1.1,32.829,1.641,53.949,1.641,8.313,0,17.071-.086,26.781-.252h147.764v109.174C-2357.947,26183.8-2311.29,26199.176-2270.836,26220.422ZM-2691.892,24206h47.907a47.691,47.691,0,0,1-2.057,12.119,24.68,24.68,0,0,1-4.68,8.621,18.687,18.687,0,0,1-7.3,5.152,26.706,26.706,0,0,1-9.918,1.713C-2683.013,24233.605-2690.846,24224.576-2691.892,24206Zm-63.229,21.594c-1-1.535-1.44-3.979-1.44-7.934V24206h15.085c-.165,12.584-.208,13.846-1.1,17.494-.731,4.285-3.1,6.277-7.46,6.277C-2752.563,24229.771-2754.132,24229.1-2755.121,24227.594Zm295.958-9.16-5.669-12.434h10.936l-5.267,12.434v.008Z" stroke="none"/><path d="M -2657.944580078125 28555.212890625 L -2657.944580078125 28492.771484375 L -2684.044677734375 28492.771484375 C -2730.64794921875 28490.908203125 -2737.169189453125 28484.37890625 -2737.169189453125 28437.775390625 L -2737.169189453125 28265.3515625 C -2737.169189453125 28249.716796875 -2737.637451171875 28235.90625 -2738.66015625 28223.6171875 C -2668.689697265625 28367.3046875 -2540.5712890625 28445.4296875 -2365.22509765625 28445.4296875 C -2204.1884765625 28445.4296875 -2119.431396484375 28394.576171875 -2032.552978515625 28242.01171875 L -2032.552978515625 28415.76171875 L -1598.16796875 28415.76171875 L -1598.16796875 28273.794921875 L -1657.49853515625 28273.794921875 C -1754.012451171875 28269.935546875 -1774.910766601562 28257.28125 -1777.867431640625 28174.96875 L -1520.390747070312 28174.96875 L -1520.390747070312 28107.77734375 L -1540.44970703125 28107.77734375 C -1590.593017578125 28105.76953125 -1597.609130859375 28098.75390625 -1597.609130859375 28048.611328125 L -1597.609130859375 27927.26953125 C -1597.609130859375 27871.11328125 -1590.593017578125 27845.041015625 -1568.527465820312 27815.9609375 C -1545.4658203125 27784.873046875 -1511.368041992188 27766.8203125 -1476.267456054688 27766.8203125 C -1451.199096679688 27766.8203125 -1429.140747070312 27776.845703125 -1416.098022460938 27792.892578125 C -1405.068481445312 27807.93359375 -1402.05908203125 27821.97265625 -1402.05908203125 27863.0859375 L -1402.05908203125 28048.611328125 C -1402.05908203125 28098.75390625 -1409.081909179688 28105.76953125 -1459.225219726562 28107.77734375 L -1479.27685546875 28107.77734375 L -1479.27685546875 28174.96875 L -1196.483032226562 28174.96875 L -1196.483032226562 28107.77734375 L -1224.561279296875 28107.77734375 C -1274.70458984375 28105.76953125 -1281.720703125 28098.75390625 -1281.720703125 28048.611328125 L -1281.720703125 27863.0859375 C -1281.720703125 27791.888671875 -1290.743041992188 27755.783203125 -1315.818481445312 27730.716796875 C -1340.886352539062 27705.6484375 -1385.01025390625 27689.6015625 -1428.137451171875 27689.6015625 C -1492.31298828125 27689.6015625 -1535.440185546875 27713.66796875 -1597.609130859375 27786.87109375 L -1597.609130859375 27704.64453125 L -1778.274047851562 27704.64453125 L -1778.274047851562 27398.1015625 L -1288.743530273438 27398.1015625 L -1288.743530273438 27285.5234375 L -1340.8291015625 27285.5234375 C -1424.8408203125 27282.162109375 -1436.601318359375 27270.40234375 -1436.601318359375 27186.3984375 L -1436.601318359375 26303.115234375 L -1088.170166015625 26303.115234375 L -1088.170166015625 26064.158203125 L -1210.780151367188 26064.158203125 C -1220.325805664062 26064.32421875 -1228.939697265625 26064.41015625 -1237.109619140625 26064.41015625 C -1257.8779296875 26064.41015625 -1275.234619140625 26063.873046875 -1290.169677734375 26062.76953125 C -1306.315795898438 26061.578125 -1319.888549804688 26059.71484375 -1331.656372070312 26057.072265625 C -1343.903564453125 26054.326171875 -1354.137451171875 26050.75 -1362.944702148438 26046.15625 C -1367.37353515625 26043.849609375 -1371.501342773438 26041.2265625 -1375.206298828125 26038.375 C -1378.918579101562 26035.521484375 -1382.358520507812 26032.318359375 -1385.440185546875 26028.849609375 C -1397.422485351562 26015.34765625 -1405.090209960938 25996.78125 -1409.562377929688 25970.39453125 C -1411.6474609375 25958.1328125 -1413.088012695312 25943.90625 -1413.976928710938 25926.9140625 C -1414.7724609375 25911.771484375 -1415.137451171875 25894.443359375 -1415.137451171875 25872.37109375 L -1415.137451171875 24639.884765625 C -1415.137451171875 24617.41015625 -1414.7724609375 24599.759765625 -1413.976928710938 24584.34375 C -1413.088012695312 24567.037109375 -1411.6474609375 24552.568359375 -1409.569091796875 24540.099609375 C -1405.097412109375 24513.275390625 -1397.4296875 24494.3984375 -1385.440185546875 24480.703125 C -1382.372924804688 24477.19140625 -1378.92578125 24473.939453125 -1375.206298828125 24471.04296875 C -1371.494140625 24468.1484375 -1367.37353515625 24465.490234375 -1362.944702148438 24463.15234375 C -1354.137451171875 24458.494140625 -1343.896362304688 24454.8828125 -1331.641845703125 24452.1015625 C -1319.8818359375 24449.4375 -1306.30859375 24447.55859375 -1290.141357421875 24446.35546875 C -1275.206298828125 24445.244140625 -1257.841918945312 24444.70703125 -1237.059692382812 24444.70703125 C -1228.939697265625 24444.70703125 -1220.340209960938 24444.78515625 -1210.780151367188 24444.951171875 L -1088.170166015625 24444.951171875 L -1088.170166015625 24206 L -2210.552490234375 24206 L -2210.552490234375 24444.951171875 L -2062.7880859375 24444.951171875 C -2053.06298828125 24444.78515625 -2044.31298828125 24444.70703125 -2036.04296875 24444.70703125 C -2015.482421875 24444.70703125 -1998.218505859375 24445.21484375 -1983.262451171875 24446.25390625 C -1967.080810546875 24447.38671875 -1953.428588867188 24449.150390625 -1941.525146484375 24451.64453125 C -1929.105712890625 24454.24609375 -1918.671264648438 24457.62109375 -1909.62744140625 24461.962890625 C -1905.076904296875 24464.1484375 -1900.826904296875 24466.62109375 -1896.985717773438 24469.31640625 C -1893.130249023438 24472.017578125 -1889.554077148438 24475.048828125 -1886.344116210938 24478.31640625 C -1873.0068359375 24491.8984375 -1864.629638671875 24510.81640625 -1859.971313476562 24537.87109375 C -1857.785766601562 24550.576171875 -1856.374145507812 24565.310546875 -1855.642944335938 24582.91796875 C -1854.983520507812 24598.833984375 -1854.869140625 24616.9375 -1855.28466796875 24639.884765625 L -1855.28466796875 25102.068359375 L -2763.8857421875 25102.068359375 L -2763.8857421875 24639.884765625 C -2764.30126953125 24616.9453125 -2764.186767578125 24598.841796875 -2763.52734375 24582.91015625 C -2762.803466796875 24565.302734375 -2761.384765625 24550.568359375 -2759.198974609375 24537.87109375 C -2754.548095703125 24510.810546875 -2746.170166015625 24491.890625 -2732.8408203125 24478.310546875 C -2729.623046875 24475.04296875 -2726.046875 24472.01171875 -2722.198486328125 24469.30859375 C -2718.36474609375 24466.62109375 -2714.107421875 24464.1484375 -2709.556884765625 24461.962890625 C -2700.520263671875 24457.62109375 -2690.0791015625 24454.24609375 -2677.65185546875 24451.64453125 C -2665.741943359375 24449.150390625 -2652.089599609375 24447.38671875 -2635.915283203125 24446.25390625 C -2620.972900390625 24445.21484375 -2603.708984375 24444.70703125 -2583.134033203125 24444.70703125 C -2574.857421875 24444.70703125 -2566.10693359375 24444.78515625 -2556.3818359375 24444.951171875 L -2408.617919921875 24444.951171875 L -2408.617919921875 24206 L -2437.849609375 24206 L -2449.653076171875 24233.08203125 C -2453.87353515625 24242.9140625 -2457.35693359375 24250.259765625 -2460.610107421875 24256.1796875 C -2464.01416015625 24262.400390625 -2467.23193359375 24267.123046875 -2470.427978515625 24270.61328125 C -2473.6240234375 24274.109375 -2476.964111328125 24276.5390625 -2480.633056640625 24278.052734375 C -2484.12353515625 24279.4921875 -2487.978515625 24280.158203125 -2492.751220703125 24280.158203125 C -2496.41357421875 24280.158203125 -2499.8896484375 24279.607421875 -2503.099609375 24278.525390625 C -2506.217529296875 24277.46484375 -2508.976318359375 24275.9296875 -2511.3125 24273.974609375 C -2513.6484375 24272.009765625 -2515.468994140625 24269.689453125 -2516.730224609375 24267.06640625 C -2518.02734375 24264.37109375 -2518.6796875 24261.447265625 -2518.6796875 24258.365234375 C -2518.6796875 24256.1015625 -2518.299560546875 24253.97265625 -2517.54736328125 24252.044921875 C -2516.823486328125 24250.16796875 -2515.755859375 24248.51953125 -2514.39404296875 24247.142578125 C -2513.032470703125 24245.7734375 -2511.3984375 24244.70703125 -2509.549560546875 24243.974609375 C -2507.66455078125 24243.22265625 -2505.5869140625 24242.849609375 -2503.38623046875 24242.849609375 C -2499.781982421875 24242.849609375 -2496.499755859375 24244.01171875 -2494.149169921875 24246.119140625 C -2491.798583984375 24248.21875 -2490.508544921875 24251.142578125 -2490.508544921875 24254.3515625 C -2490.508544921875 24257.755859375 -2491.64794921875 24260.3359375 -2493.891357421875 24262.048828125 C -2496.1484375 24263.76953125 -2499.588623046875 24264.642578125 -2504.117431640625 24264.642578125 L -2504.1318359375 24264.642578125 C -2502.232421875 24266.419921875 -2500.92138671875 24267.388671875 -2499.6025390625 24267.9765625 C -2498.26953125 24268.5859375 -2496.879638671875 24268.828125 -2494.80078125 24268.828125 C -2492.1923828125 24268.828125 -2489.956298828125 24268.419921875 -2487.964111328125 24267.587890625 C -2485.86474609375 24266.70703125 -2483.944091796875 24265.32421875 -2482.087890625 24263.361328125 C -2478.476318359375 24259.51953125 -2474.964599609375 24253.384765625 -2470.356201171875 24242.849609375 L -2488.000244140625 24206 L -2569.61865234375 24206 L -2569.61865234375 24220.87890625 C -2569.61865234375 24225.056640625 -2569.32470703125 24227.599609375 -2567.798583984375 24229.09765625 C -2566.250244140625 24230.609375 -2563.39794921875 24231.00390625 -2558.983642578125 24231.169921875 L -2549.653076171875 24231.169921875 L -2549.653076171875 24242.849609375 L -2608.611328125 24242.849609375 L -2608.611328125 24231.169921875 L -2602.641357421875 24231.169921875 C -2598.097900390625 24230.91015625 -2595.345703125 24230.49609375 -2593.826904296875 24229.033203125 C -2592.29296875 24227.556640625 -2592.00634765625 24225.02734375 -2592.00634765625 24220.87890625 L -2592.00634765625 24206 L -2618.6513671875 24206 C -2619.109619140625 24211.94140625 -2620.621826171875 24217.458984375 -2623.1513671875 24222.390625 C -2625.63134765625 24227.234375 -2629.049560546875 24231.462890625 -2633.32080078125 24234.9453125 C -2642.028076171875 24242.0546875 -2653.866943359375 24245.810546875 -2667.569091796875 24245.810546875 C -2674.670654296875 24245.810546875 -2681.271240234375 24244.87890625 -2687.18359375 24243.037109375 C -2692.988525390625 24241.23046875 -2698.112548828125 24238.55859375 -2702.4052734375 24235.095703125 C -2706.68359375 24231.642578125 -2710.12353515625 24227.421875 -2712.610107421875 24222.5546875 C -2715.13232421875 24217.625 -2716.673583984375 24212.056640625 -2717.189208984375 24206 L -2729.32177734375 24206 L -2729.32177734375 24210.416015625 C -2729.32177734375 24216.98046875 -2729.5869140625 24221.509765625 -2730.189208984375 24225.10546875 C -2730.798583984375 24228.775390625 -2731.794677734375 24231.771484375 -2733.428466796875 24234.83203125 C -2735.28466796875 24238.37890625 -2738.14404296875 24241.130859375 -2741.94189453125 24243 C -2745.726318359375 24244.86328125 -2750.326904296875 24245.810546875 -2755.629638671875 24245.810546875 C -2760.008544921875 24245.810546875 -2763.82861328125 24245.1015625 -2766.967529296875 24243.6953125 C -2770.12744140625 24242.28515625 -2772.721923828125 24240.119140625 -2774.6640625 24237.267578125 C -2776.326904296875 24234.802734375 -2777.351318359375 24232.373046875 -2777.996337890625 24229.3984375 C -2778.65576171875 24226.353515625 -2778.94970703125 24222.591796875 -2778.94970703125 24217.216796875 L -2778.94970703125 24206 L -2804.318603515625 24206 C -2801.5595703125 24209.662109375 -2800.226318359375 24214.013671875 -2800.226318359375 24219.30859375 C -2800.226318359375 24223.357421875 -2801.04345703125 24227.076171875 -2802.670166015625 24230.3671875 C -2804.26123046875 24233.60546875 -2806.626220703125 24236.408203125 -2809.693603515625 24238.708984375 C -2812.7607421875 24241.0078125 -2816.515869140625 24242.779296875 -2820.843994140625 24243.974609375 C -2825.251953125 24245.193359375 -2830.246337890625 24245.810546875 -2835.671875 24245.810546875 C -2841.806396484375 24245.810546875 -2845.984130859375 24245.287109375 -2850.0830078125 24244.00390625 C -2854.182373046875 24242.720703125 -2858.460693359375 24240.63671875 -2865.33349609375 24236.572265625 L -2868.694580078125 24243.896484375 L -2881.00634765625 24243.896484375 L -2881.00634765625 24210.416015625 L -2867.39013671875 24210.416015625 C -2865.734619140625 24215.9765625 -2864.04345703125 24219.775390625 -2861.907958984375 24222.734375 C -2859.736328125 24225.744140625 -2857.056396484375 24227.96484375 -2853.2080078125 24229.943359375 C -2848.7001953125 24232.14453125 -2843.619140625 24233.26171875 -2838.101318359375 24233.26171875 C -2833.4140625 24233.26171875 -2829.4658203125 24232.287109375 -2826.69189453125 24230.453125 C -2823.904052734375 24228.595703125 -2822.427978515625 24225.951171875 -2822.427978515625 24222.798828125 C -2822.427978515625 24217.560546875 -2826.9140625 24214.427734375 -2837.907470703125 24211.984375 L -2851.53076171875 24209.025390625 C -2855.30078125 24208.1640625 -2858.726318359375 24207.154296875 -2861.728515625 24206 L -2906.94189453125 24206 L -2906.94189453125 24220.87890625 C -2906.94189453125 24225.056640625 -2906.6552734375 24227.599609375 -2905.121337890625 24229.09765625 C -2903.580810546875 24230.609375 -2900.721435546875 24231.00390625 -2896.306884765625 24231.169921875 L -2890.709716796875 24231.169921875 L -2890.709716796875 24242.849609375 L -2946.86572265625 24242.849609375 L -2946.86572265625 24231.169921875 L -2940.15087890625 24231.169921875 C -2935.74365234375 24231.00390625 -2932.884033203125 24230.609375 -2931.33642578125 24229.09765625 C -2929.8095703125 24227.599609375 -2929.52294921875 24225.056640625 -2929.52294921875 24220.87890625 L -2929.52294921875 24206 L -2975.230224609375 24206 L -2975.230224609375 24218.95703125 C -2975.230224609375 24223.38671875 -2974.95068359375 24226.080078125 -2973.467529296875 24227.63671875 C -2972.105712890625 24229.076171875 -2969.7197265625 24229.607421875 -2964.674072265625 24229.607421875 C -2964.2158203125 24229.607421875 -2963.685302734375 24229.607421875 -2963.105224609375 24229.591796875 L -2955.823486328125 24229.591796875 L -2955.823486328125 24242.849609375 L -3022.435791015625 24242.849609375 L -3022.435791015625 24229.591796875 L -3013.66357421875 24229.591796875 C -3013.040771484375 24229.607421875 -3012.53857421875 24229.607421875 -3012.065673828125 24229.607421875 C -3009.492919921875 24229.607421875 -3007.730224609375 24229.484375 -3006.36865234375 24229.205078125 C -3004.892333984375 24228.896484375 -3003.867431640625 24228.40234375 -3003.129150390625 24227.63671875 C -3001.63134765625 24226.080078125 -3001.351806640625 24223.38671875 -3001.351806640625 24218.95703125 L -3001.351806640625 24206 L -3055.2724609375 24206 L -3055.2724609375 24218.95703125 C -3055.2724609375 24223.38671875 -3054.98583984375 24226.080078125 -3053.488037109375 24227.63671875 C -3052.7568359375 24228.40234375 -3051.724609375 24228.896484375 -3050.24853515625 24229.205078125 C -3048.89404296875 24229.484375 -3047.13134765625 24229.607421875 -3044.55126953125 24229.607421875 C -3044.085205078125 24229.607421875 -3043.548095703125 24229.607421875 -3042.952880859375 24229.591796875 L -3034.1884765625 24229.591796875 L -3034.1884765625 24242.849609375 L -3100.79296875 24242.849609375 L -3100.79296875 24229.591796875 L -3093.51904296875 24229.591796875 C -3092.903076171875 24229.607421875 -3092.408447265625 24229.607421875 -3091.94970703125 24229.607421875 C -3086.8974609375 24229.607421875 -3084.5185546875 24229.076171875 -3083.149658203125 24227.63671875 C -3081.673095703125 24226.080078125 -3081.3935546875 24223.38671875 -3081.3935546875 24218.95703125 L -3081.3935546875 24206 L -3531.000244140625 24206 L -3531.000244140625 24444.951171875 L -3408.39013671875 24444.951171875 C -3398.830322265625 24444.78515625 -3390.237548828125 24444.70703125 -3382.117919921875 24444.70703125 C -3361.335205078125 24444.70703125 -3343.971435546875 24445.244140625 -3329.036376953125 24446.35546875 C -3312.875732421875 24447.55859375 -3299.302978515625 24449.443359375 -3287.54248046875 24452.109375 C -3275.28857421875 24454.890625 -3265.04736328125 24458.501953125 -3256.240234375 24463.15234375 C -3251.810791015625 24465.49609375 -3247.682861328125 24468.15625 -3243.97802734375 24471.04296875 C -3240.258544921875 24473.9453125 -3236.818603515625 24477.19140625 -3233.74462890625 24480.703125 C -3221.748046875 24494.40625 -3214.07958984375 24513.275390625 -3209.60791015625 24540.099609375 C -3207.529541015625 24552.576171875 -3206.08251953125 24567.052734375 -3205.193603515625 24584.34375 C -3204.4052734375 24599.765625 -3204.032470703125 24617.41796875 -3204.032470703125 24639.884765625 L -3204.032470703125 25872.37109375 C -3204.032470703125 25894.4375 -3204.4052734375 25911.771484375 -3205.193603515625 25926.9140625 C -3206.08251953125 25943.90625 -3207.5224609375 25958.1328125 -3209.600830078125 25970.400390625 C -3214.072998046875 25996.78125 -3221.74072265625 26015.35546875 -3233.722900390625 26028.849609375 C -3236.79736328125 26032.318359375 -3240.237548828125 26035.521484375 -3243.956787109375 26038.380859375 C -3247.661376953125 26041.234375 -3251.78955078125 26043.849609375 -3256.21142578125 26046.15625 C -3265.0185546875 26050.7578125 -3275.259765625 26054.326171875 -3287.5068359375 26057.072265625 C -3299.266845703125 26059.71484375 -3312.840087890625 26061.578125 -3328.99365234375 26062.76953125 C -3343.935302734375 26063.873046875 -3361.29248046875 26064.41015625 -3382.060791015625 26064.41015625 C -3390.230224609375 26064.41015625 -3398.8447265625 26064.32421875 -3408.39013671875 26064.158203125 L -3531.000244140625 26064.158203125 L -3531.000244140625 26303.115234375 L -3037.501953125 26303.115234375 C -3199.771240234375 26427.35546875 -3300.113037109375 26626.3671875 -3300.113037109375 26866.208984375 C -3300.113037109375 27186.75390625 -3134.40625 27423.576171875 -2869.96142578125 27505.509765625 C -2876.220703125 27504.814453125 -2882.63916015625 27504.45703125 -2889.20458984375 27504.45703125 C -2952.670654296875 27504.45703125 -2993.81298828125 27531.490234375 -3038.47412109375 27602.013671875 L -3038.47412109375 27519.736328125 L -3284.117431640625 27519.736328125 L -3284.117431640625 27598.48828125 L -3246.508056640625 27598.48828125 C -3187.736328125 27600.83984375 -3179.509033203125 27609.06640625 -3179.509033203125 27667.830078125 L -3179.509033203125 27922.876953125 C -3179.509033203125 27980.46484375 -3187.736328125 27988.693359375 -3246.508056640625 27992.21875 L -3284.117431640625 27992.21875 L -3284.117431640625 28070.970703125 L -2912.710693359375 28070.970703125 L -2912.710693359375 27992.21875 L -2971.47509765625 27992.21875 C -3030.246826171875 27989.8671875 -3038.47412109375 27980.46484375 -3038.47412109375 27922.876953125 L -3038.47412109375 27773.607421875 C -3038.47412109375 27717.193359375 -3024.370849609375 27663.12890625 -3000.86474609375 27627.87109375 C -2976.17626953125 27591.4375 -2937.391845703125 27566.748046875 -2905.6591796875 27566.748046875 C -2893.90576171875 27566.748046875 -2875.101318359375 27571.44921875 -2853.94580078125 27578.5078125 C -2904.483642578125 27594.955078125 -2924.463623046875 27617.29296875 -2924.463623046875 27657.25390625 C -2924.463623046875 27700.73828125 -2892.730712890625 27728.9453125 -2844.54345703125 27728.9453125 C -2814.05859375 27728.9453125 -2788.581298828125 27716.4140625 -2771.870849609375 27695.505859375 C -2790.149658203125 27759.8515625 -2799.610107421875 27833.4765625 -2799.610107421875 27915.6875 C -2799.610107421875 28000 -2789.6513671875 28075.310546875 -2770.411865234375 28140.810546875 C -2793.94970703125 28118.3828125 -2834.04638671875 28104.115234375 -2873.2451171875 28104.115234375 C -2932.8984375 28104.115234375 -2972.972900390625 28126.48046875 -3030.755859375 28194.51953125 L -3030.755859375 28118.08984375 L -3225.552978515625 28118.08984375 L -3225.552978515625 28180.537109375 L -3195.726806640625 28180.537109375 C -3149.12353515625 28182.400390625 -3142.601806640625 28188.921875 -3142.601806640625 28235.525390625 L -3142.601806640625 28437.775390625 C -3142.601806640625 28484.37890625 -3149.12353515625 28490.908203125 -3195.726806640625 28492.771484375 L -3225.552978515625 28492.771484375 L -3225.552978515625 28555.212890625 L -2958.9912109375 28555.212890625 L -2958.9912109375 28492.771484375 L -2977.63134765625 28492.771484375 C -3024.234130859375 28490.908203125 -3030.755859375 28484.37890625 -3030.755859375 28437.775390625 L -3030.755859375 28325.005859375 C -3030.755859375 28272.8046875 -3024.234130859375 28248.576171875 -3003.731201171875 28221.54296875 C -2982.296875 28192.65625 -2950.60693359375 28175.87890625 -2917.985107421875 28175.87890625 C -2894.6796875 28175.87890625 -2874.1767578125 28185.1953125 -2862.05859375 28200.109375 C -2851.810791015625 28214.08984375 -2849.015869140625 28227.140625 -2849.015869140625 28265.3515625 L -2849.015869140625 28437.775390625 C -2849.015869140625 28484.37890625 -2855.536865234375 28490.908203125 -2902.14013671875 28492.771484375 L -2920.7802734375 28492.771484375 L -2920.7802734375 28555.212890625 L -2657.944580078125 28555.212890625 M -2280.468017578125 27508.36328125 C -2121.545654296875 27508.36328125 -2032.552978515625 27688.96484375 -2032.552978515625 27915.6875 C -2032.552978515625 28142.419921875 -2121.545654296875 28311.302734375 -2280.468017578125 28311.302734375 C -2473.8896484375 28311.302734375 -2570.0986328125 28145.658203125 -2570.0986328125 27906.21484375 C -2570.0986328125 27679.482421875 -2470.61474609375 27508.36328125 -2280.468017578125 27508.36328125 M -1778.274047851562 27771.830078125 L -1775.114135742188 27771.830078125 C -1724.97021484375 27773.8359375 -1717.95458984375 27780.859375 -1717.95458984375 27830.99609375 L -1717.95458984375 28048.611328125 C -1717.95458984375 28098.75390625 -1724.97021484375 28105.76953125 -1775.114135742188 28107.77734375 L -1778.274047851562 28107.77734375 L -1778.274047851562 27771.830078125 M -2823.55126953125 27518.0546875 C -2782.6806640625 27527.5390625 -2739.716796875 27533.529296875 -2694.888427734375 27535.787109375 C -2716.766845703125 27564.638671875 -2735.369140625 27597.421875 -2750.5703125 27634.025390625 C -2750.532470703125 27632.765625 -2750.512939453125 27631.498046875 -2750.512939453125 27630.220703125 C -2750.512939453125 27579.380859375 -2779.11865234375 27538.267578125 -2823.55126953125 27518.0546875 M -2101.51806640625 27148.623046875 C -2042.203491210938 27157.779296875 -2032.552978515625 27183.95703125 -2032.552978515625 27269.40625 L -2032.552978515625 27587.251953125 C -2095.819091796875 27477.6953125 -2157.948486328125 27420.95703125 -2250.05908203125 27398.205078125 C -2237.146240234375 27386.1796875 -2224.62353515625 27373.326171875 -2212.4375 27359.6171875 C -2159.15966796875 27294.9140625 -2127.129638671875 27238.1796875 -2101.51806640625 27148.623046875 M -2638.638427734375 26303.115234375 L -2562.73681640625 26303.115234375 C -2496.5634765625 26305.884765625 -2424.899658203125 26315.638671875 -2376.00341796875 26340.087890625 C -2316.028076171875 26367.34765625 -2288.766845703125 26399.826171875 -2239.697998046875 26478.87890625 C -2346.011962890625 26497.962890625 -2389.626953125 26533.638671875 -2389.626953125 26615.4140625 C -2389.626953125 26623.353515625 -2389.11083984375 26631.064453125 -2388.064697265625 26638.783203125 C -2378.017333984375 26713.064453125 -2318.99462890625 26762.619140625 -2239.697998046875 26762.619140625 C -2130.661376953125 26762.619140625 -2057.0546875 26686.2890625 -2057.0546875 26571.798828125 C -2057.0546875 26472.9921875 -2093.7197265625 26376.859375 -2162.238037109375 26303.115234375 L -1787.755249023438 26303.115234375 L -1787.755249023438 26389.986328125 L -1737.354125976562 26389.986328125 C -1651.665161132812 26393.34765625 -1639.905151367188 26405.107421875 -1639.905151367188 26489.12109375 L -1639.905151367188 27186.3984375 C -1639.905151367188 27270.40234375 -1651.665161132812 27282.162109375 -1737.354125976562 27285.5234375 L -1778.274047851562 27285.5234375 L -1778.274047851562 27002.421875 L -2242.32861328125 27002.421875 L -2242.32861328125 27010.685546875 L -2244.6357421875 27010.685546875 C -2274.6201171875 27133.3515625 -2280.589599609375 27185.150390625 -2321.481201171875 27239.673828125 C -2386.903564453125 27324.171875 -2501.39404296875 27375.970703125 -2626.79248046875 27375.970703125 C -2883.03466796875 27375.970703125 -3038.4169921875 27176.974609375 -3038.4169921875 26844.40234375 C -3038.4169921875 26514.255859375 -2898.8125 26317.865234375 -2638.638427734375 26303.115234375 M -2556.3818359375 26064.158203125 C -2566.092529296875 26064.32421875 -2574.85009765625 26064.41015625 -2583.1630859375 26064.41015625 C -2604.282470703125 26064.41015625 -2621.92626953125 26063.873046875 -2637.11181640625 26062.76953125 C -2653.52294921875 26061.578125 -2667.310791015625 26059.71484375 -2679.2646484375 26057.072265625 C -2691.705810546875 26054.326171875 -2702.096923828125 26050.75 -2711.033447265625 26046.15625 C -2715.5263671875 26043.849609375 -2719.7119140625 26041.2265625 -2723.47412109375 26038.375 C -2727.236328125 26035.521484375 -2730.726806640625 26032.318359375 -2733.843994140625 26028.849609375 C -2745.9912109375 26015.35546875 -2753.75244140625 25996.78125 -2758.267333984375 25970.39453125 C -2760.366943359375 25958.138671875 -2761.82177734375 25943.919921875 -2762.717529296875 25926.9140625 C -2763.512939453125 25911.79296875 -2763.8857421875 25894.46484375 -2763.8857421875 25872.37109375 L -2763.8857421875 25353.59375 L -1855.28466796875 25353.59375 L -1855.28466796875 25872.37109375 C -1855.28466796875 25918.0859375 -1856.968505859375 25947.404296875 -1860.902954101562 25970.400390625 C -1865.41796875 25996.787109375 -1873.171875 26015.36328125 -1885.319091796875 26028.849609375 C -1888.429077148438 26032.318359375 -1891.919067382812 26035.521484375 -1895.689086914062 26038.380859375 C -1899.451293945312 26041.234375 -1903.636352539062 26043.849609375 -1908.122436523438 26046.15625 C -1917.066284179688 26050.7578125 -1927.457397460938 26054.326171875 -1939.898559570312 26057.072265625 C -1951.844604492188 26059.71484375 -1965.632934570312 26061.578125 -1982.05126953125 26062.76953125 C -1997.23681640625 26063.873046875 -2014.887939453125 26064.41015625 -2036.007446289062 26064.41015625 C -2044.320190429688 26064.41015625 -2053.077392578125 26064.32421875 -2062.7880859375 26064.158203125 L -2210.552490234375 26064.158203125 L -2210.552490234375 26259.044921875 C -2229.0908203125 26244.73046875 -2249.19677734375 26231.78515625 -2270.83642578125 26220.421875 C -2311.290283203125 26199.17578125 -2357.94677734375 26183.802734375 -2408.617919921875 26173.33203125 L -2408.617919921875 26064.158203125 L -2556.3818359375 26064.158203125 M -2667.94189453125 24233.60546875 C -2664.215087890625 24233.60546875 -2660.875732421875 24233.033203125 -2658.0234375 24231.892578125 C -2655.1640625 24230.759765625 -2652.705810546875 24229.025390625 -2650.720703125 24226.740234375 C -2648.73583984375 24224.455078125 -2647.1591796875 24221.552734375 -2646.041259765625 24218.119140625 C -2644.923095703125 24214.6796875 -2644.22802734375 24210.6015625 -2643.984130859375 24206 L -2691.891845703125 24206 C -2690.845703125 24224.576171875 -2683.012451171875 24233.60546875 -2667.94189453125 24233.60546875 M -2750.032958984375 24229.771484375 C -2745.67578125 24229.771484375 -2743.303466796875 24227.779296875 -2742.572998046875 24223.494140625 C -2741.68408203125 24219.845703125 -2741.641357421875 24218.583984375 -2741.476318359375 24206 L -2756.561279296875 24206 L -2756.561279296875 24219.66015625 C -2756.561279296875 24223.615234375 -2756.117431640625 24226.05859375 -2755.121337890625 24227.59375 C -2754.1318359375 24229.09765625 -2752.56298828125 24229.771484375 -2750.032958984375 24229.771484375 M -2459.162353515625 24218.44140625 L -2459.162353515625 24218.43359375 L -2453.895263671875 24206 L -2464.831298828125 24206 L -2459.162353515625 24218.44140625 M -2657.944580078125 28565.212890625 L -2920.7802734375 28565.212890625 C -2926.302978515625 28565.212890625 -2930.7802734375 28560.736328125 -2930.7802734375 28555.212890625 L -2930.7802734375 28492.771484375 C -2930.7802734375 28487.248046875 -2926.302978515625 28482.771484375 -2920.7802734375 28482.771484375 L -2902.14013671875 28482.771484375 C -2861.049560546875 28481.12109375 -2859.015869140625 28479.017578125 -2859.015869140625 28437.775390625 L -2859.015869140625 28265.3515625 C -2859.015869140625 28227.560546875 -2861.7890625 28217.390625 -2870.1240234375 28206.021484375 C -2880.2685546875 28193.556640625 -2898.274169921875 28185.87890625 -2917.985107421875 28185.87890625 C -2947.30859375 28185.87890625 -2976.361328125 28201.439453125 -2995.70068359375 28227.501953125 C -3014.916259765625 28252.837890625 -3020.755859375 28275.599609375 -3020.755859375 28325.005859375 L -3020.755859375 28437.775390625 C -3020.755859375 28479.017578125 -3018.721923828125 28481.12109375 -2977.23193359375 28482.779296875 L -2958.9912109375 28482.771484375 C -2953.468505859375 28482.771484375 -2948.9912109375 28487.248046875 -2948.9912109375 28492.771484375 L -2948.9912109375 28555.212890625 C -2948.9912109375 28560.736328125 -2953.468505859375 28565.212890625 -2958.9912109375 28565.212890625 L -3225.552978515625 28565.212890625 C -3231.07568359375 28565.212890625 -3235.552978515625 28560.736328125 -3235.552978515625 28555.212890625 L -3235.552978515625 28492.771484375 C -3235.552978515625 28487.248046875 -3231.07568359375 28482.771484375 -3225.552978515625 28482.771484375 L -3195.726806640625 28482.771484375 C -3154.6357421875 28481.12109375 -3152.601806640625 28479.017578125 -3152.601806640625 28437.775390625 L -3152.601806640625 28235.525390625 C -3152.601806640625 28194.291015625 -3154.6357421875 28192.1875 -3196.126220703125 28190.529296875 L -3225.552978515625 28190.537109375 C -3231.07568359375 28190.537109375 -3235.552978515625 28186.060546875 -3235.552978515625 28180.537109375 L -3235.552978515625 28118.08984375 C -3235.552978515625 28112.56640625 -3231.07568359375 28108.08984375 -3225.552978515625 28108.08984375 L -3030.755859375 28108.08984375 C -3025.23291015625 28108.08984375 -3020.755859375 28112.56640625 -3020.755859375 28118.08984375 L -3020.755859375 28168.14453125 C -2970.430908203125 28113.921875 -2929.821533203125 28094.115234375 -2873.2451171875 28094.115234375 C -2842.45556640625 28094.115234375 -2811.716796875 28102.185546875 -2787.428955078125 28116.0234375 C -2802.15673828125 28055.916015625 -2809.610107421875 27988.67578125 -2809.610107421875 27915.6875 C -2809.610107421875 27846.291015625 -2802.872314453125 27782.044921875 -2789.5537109375 27724.201171875 C -2805.435302734375 27733.8359375 -2824.186767578125 27738.9453125 -2844.54345703125 27738.9453125 C -2898.327392578125 27738.9453125 -2934.463623046875 27706.115234375 -2934.463623046875 27657.25390625 C -2934.463623046875 27620.859375 -2919.650146484375 27597.154296875 -2884.594970703125 27579.9453125 C -2895.08984375 27577.4375 -2901.635498046875 27576.748046875 -2905.6591796875 27576.748046875 C -2934.205322265625 27576.748046875 -2969.951416015625 27600.078125 -2992.58642578125 27633.48046875 C -3015.04248046875 27667.1640625 -3028.47412109375 27719.572265625 -3028.47412109375 27773.607421875 L -3028.47412109375 27922.876953125 C -3028.47412109375 27975.6640625 -3024.182373046875 27980.1015625 -2971.0751953125 27982.2265625 L -2912.710693359375 27982.21875 C -2907.18798828125 27982.21875 -2902.710693359375 27986.6953125 -2902.710693359375 27992.21875 L -2902.710693359375 28070.970703125 C -2902.710693359375 28076.494140625 -2907.18798828125 28080.970703125 -2912.710693359375 28080.970703125 L -3284.117431640625 28080.970703125 C -3289.64013671875 28080.970703125 -3294.117431640625 28076.494140625 -3294.117431640625 28070.970703125 L -3294.117431640625 27992.21875 C -3294.117431640625 27986.6953125 -3289.64013671875 27982.21875 -3284.117431640625 27982.21875 L -3246.508056640625 27982.21875 C -3193.27734375 27979.0078125 -3189.509033203125 27975.125 -3189.509033203125 27922.876953125 L -3189.509033203125 27667.830078125 C -3189.509033203125 27614.509765625 -3193.26416015625 27610.626953125 -3246.907958984375 27608.48046875 L -3284.117431640625 27608.48828125 C -3289.64013671875 27608.48828125 -3294.117431640625 27604.01171875 -3294.117431640625 27598.48828125 L -3294.117431640625 27519.736328125 C -3294.117431640625 27514.212890625 -3289.64013671875 27509.736328125 -3284.117431640625 27509.736328125 L -3038.47412109375 27509.736328125 C -3032.951416015625 27509.736328125 -3028.47412109375 27514.212890625 -3028.47412109375 27519.736328125 L -3028.47412109375 27569.755859375 C -2996.516357421875 27527.08984375 -2964.096435546875 27504.703125 -2923.035400390625 27497.29296875 C -3166.50146484375 27399.556640625 -3310.113037109375 27167.55078125 -3310.113037109375 26866.208984375 C -3310.113037109375 26640.068359375 -3223.6767578125 26444.83984375 -3066.00927734375 26313.115234375 L -3531.000244140625 26313.115234375 C -3536.52294921875 26313.115234375 -3541.000244140625 26308.638671875 -3541.000244140625 26303.115234375 L -3541.000244140625 26064.158203125 C -3541.000244140625 26058.634765625 -3536.52294921875 26054.158203125 -3531.000244140625 26054.158203125 L -3408.39013671875 26054.158203125 C -3398.733642578125 26054.32421875 -3390.17626953125 26054.41015625 -3382.060791015625 26054.41015625 C -3361.54248046875 26054.41015625 -3344.42529296875 26053.8828125 -3329.730224609375 26052.796875 C -3314.065185546875 26051.640625 -3300.971435546875 26049.849609375 -3289.69970703125 26047.31640625 C -3278.29345703125 26044.7578125 -3268.855712890625 26041.48046875 -3260.842529296875 26037.29296875 C -3256.912353515625 26035.2421875 -3253.286376953125 26032.9453125 -3250.05908203125 26030.458984375 C -3246.833984375 26027.978515625 -3243.85791015625 26025.208984375 -3241.206787109375 26022.216796875 C -3230.513427734375 26010.173828125 -3223.605224609375 25993.1796875 -3219.460205078125 25968.728515625 C -3217.44970703125 25956.861328125 -3216.049072265625 25943.01171875 -3215.1796875 25926.392578125 C -3214.39697265625 25911.35546875 -3214.032470703125 25894.189453125 -3214.032470703125 25872.37109375 L -3214.032470703125 24639.884765625 C -3214.032470703125 24617.6640625 -3214.3974609375 24600.17578125 -3215.1806640625 24584.853515625 C -3216.048583984375 24567.970703125 -3217.452392578125 24553.8671875 -3219.471923828125 24541.744140625 C -3223.6240234375 24516.837890625 -3230.55029296875 24499.533203125 -3241.2685546875 24487.291015625 C -3243.924072265625 24484.2578125 -3246.9052734375 24481.443359375 -3250.129638671875 24478.927734375 C -3253.387451171875 24476.388671875 -3257.0185546875 24474.0546875 -3260.916259765625 24471.9921875 C -3268.927490234375 24467.76171875 -3278.363037109375 24464.447265625 -3289.755859375 24461.861328125 C -3301.040771484375 24459.302734375 -3314.133056640625 24457.4921875 -3329.779052734375 24456.328125 C -3344.43798828125 24455.236328125 -3361.557861328125 24454.70703125 -3382.117919921875 24454.70703125 C -3390.18408203125 24454.70703125 -3398.72021484375 24454.78515625 -3408.216796875 24454.94921875 L -3531.000244140625 24454.951171875 C -3536.52294921875 24454.951171875 -3541.000244140625 24450.474609375 -3541.000244140625 24444.951171875 L -3541.000244140625 24206 C -3541.000244140625 24200.4765625 -3536.52294921875 24196 -3531.000244140625 24196 L -3081.3935546875 24196 C -3075.870849609375 24196 -3071.3935546875 24200.4765625 -3071.3935546875 24206 L -3071.3935546875 24218.95703125 C -3071.3935546875 24222.77734375 -3071.393798828125 24228.33203125 -3074.535888671875 24232.849609375 L -3062.114013671875 24232.849609375 C -3065.272705078125 24228.34375 -3065.2724609375 24222.78515625 -3065.2724609375 24218.95703125 L -3065.2724609375 24206 C -3065.2724609375 24200.4765625 -3060.795166015625 24196 -3055.2724609375 24196 L -3001.351806640625 24196 C -2995.8291015625 24196 -2991.351806640625 24200.4765625 -2991.351806640625 24206 L -2991.351806640625 24218.95703125 C -2991.351806640625 24222.78125 -2991.352294921875 24228.33203125 -2994.509033203125 24232.849609375 L -2982.087890625 24232.849609375 C -2985.22998046875 24228.34765625 -2985.230224609375 24222.78515625 -2985.230224609375 24218.95703125 L -2985.230224609375 24206 C -2985.230224609375 24200.4765625 -2980.7529296875 24196 -2975.230224609375 24196 L -2929.52294921875 24196 C -2924.000244140625 24196 -2919.52294921875 24200.4765625 -2919.52294921875 24206 L -2919.52294921875 24220.87890625 C -2919.52294921875 24223.97265625 -2919.522705078125 24228.6875 -2921.7841796875 24232.849609375 L -2914.680908203125 24232.849609375 C -2916.94189453125 24228.693359375 -2916.94189453125 24223.974609375 -2916.94189453125 24220.87890625 L -2916.94189453125 24206 C -2916.94189453125 24200.4765625 -2912.464599609375 24196 -2906.94189453125 24196 L -2861.728515625 24196 C -2860.501220703125 24196 -2859.28466796875 24196.2265625 -2858.1396484375 24196.666015625 C -2855.622314453125 24197.634765625 -2852.649658203125 24198.51171875 -2849.30419921875 24199.27734375 L -2835.78515625 24202.212890625 C -2829.362548828125 24203.638671875 -2812.427978515625 24207.40234375 -2812.427978515625 24222.798828125 C -2812.427978515625 24224.75390625 -2812.71875 24226.6484375 -2813.277587890625 24228.4453125 C -2812.623046875 24227.66796875 -2812.077392578125 24226.8359375 -2811.645263671875 24225.95703125 C -2810.7001953125 24224.044921875 -2810.226318359375 24221.81640625 -2810.226318359375 24219.30859375 C -2810.226318359375 24215.29296875 -2811.33740234375 24213.302734375 -2812.3056640625 24212.017578125 C -2814.5869140625 24208.98828125 -2814.959716796875 24204.9296875 -2813.267333984375 24201.537109375 C -2811.57568359375 24198.14453125 -2808.110107421875 24196 -2804.318603515625 24196 L -2778.94970703125 24196 C -2773.4267578125 24196 -2768.94970703125 24200.4765625 -2768.94970703125 24206 L -2768.94970703125 24217.216796875 C -2768.94970703125 24221.794921875 -2768.718505859375 24224.9921875 -2768.222900390625 24227.28125 C -2767.843017578125 24229.033203125 -2767.32470703125 24230.265625 -2766.3740234375 24231.67578125 C -2765.50341796875 24232.953125 -2764.356201171875 24233.91015625 -2762.892333984375 24234.5625 C -2762.638671875 24234.677734375 -2762.37158203125 24234.783203125 -2762.092041015625 24234.880859375 C -2762.632568359375 24234.283203125 -2763.090087890625 24233.67578125 -2763.47509765625 24233.08984375 C -2766.198486328125 24228.89453125 -2766.561279296875 24223.94921875 -2766.561279296875 24219.66015625 L -2766.561279296875 24206 C -2766.561279296875 24200.4765625 -2762.083984375 24196 -2756.561279296875 24196 L -2741.476318359375 24196 C -2739.266845703125 24196 -2737.1337890625 24196.73046875 -2735.3994140625 24198.05859375 C -2733.715087890625 24196.767578125 -2731.60791015625 24196 -2729.32177734375 24196 L -2717.189208984375 24196 C -2711.9951171875 24196 -2707.665771484375 24199.9765625 -2707.22509765625 24205.15234375 C -2706.8203125 24209.90625 -2705.636962890625 24214.228515625 -2703.70751953125 24218 C -2702.099365234375 24221.1484375 -2699.951904296875 24223.935546875 -2697.31103515625 24226.3046875 C -2699.73974609375 24221.267578125 -2701.41162109375 24214.8125 -2701.876220703125 24206.5625 C -2702.03076171875 24203.81640625 -2701.048095703125 24201.12890625 -2699.1591796875 24199.130859375 C -2697.270263671875 24197.1328125 -2694.641845703125 24196 -2691.891845703125 24196 L -2643.984130859375 24196 C -2641.240234375 24196 -2638.616943359375 24197.126953125 -2636.728515625 24199.119140625 C -2634.840087890625 24201.109375 -2633.85302734375 24203.7890625 -2633.998046875 24206.529296875 C -2634.287353515625 24211.9921875 -2635.14013671875 24216.931640625 -2636.53125 24221.2109375 C -2637.11279296875 24222.998046875 -2637.79443359375 24224.689453125 -2638.572509765625 24226.283203125 C -2635.880126953125 24223.87109375 -2633.69140625 24221.03515625 -2632.052490234375 24217.833984375 C -2630.13134765625 24214.087890625 -2628.97802734375 24209.849609375 -2628.621826171875 24205.23046875 C -2628.2197265625 24200.021484375 -2623.875732421875 24196 -2618.6513671875 24196 L -2592.00634765625 24196 C -2586.483642578125 24196 -2582.00634765625 24200.4765625 -2582.00634765625 24206 L -2582.00634765625 24220.87890625 C -2582.00634765625 24223.9765625 -2582.00634765625 24228.693359375 -2584.298095703125 24232.849609375 L -2577.348388671875 24232.849609375 C -2579.618408203125 24228.677734375 -2579.61865234375 24223.96875 -2579.61865234375 24220.87890625 L -2579.61865234375 24206 C -2579.61865234375 24200.4765625 -2575.141357421875 24196 -2569.61865234375 24196 L -2488.000244140625 24196 C -2484.15087890625 24196 -2480.64306640625 24198.208984375 -2478.980712890625 24201.681640625 L -2462.18896484375 24236.751953125 C -2461.126953125 24234.400390625 -2460.01513671875 24231.87109375 -2458.841796875 24229.13671875 L -2458.528076171875 24228.41796875 C -2458.69384765625 24228.427734375 -2458.861083984375 24228.43359375 -2459.028564453125 24228.4375 C -2462.97802734375 24228.515625 -2466.6171875 24226.197265625 -2468.262451171875 24222.587890625 L -2473.931396484375 24210.146484375 C -2475.341796875 24207.05078125 -2475.081787109375 24203.451171875 -2473.2412109375 24200.58984375 C -2471.4013671875 24197.728515625 -2468.23291015625 24196 -2464.831298828125 24196 L -2453.895263671875 24196 C -2450.724365234375 24196 -2447.7529296875 24197.50390625 -2445.872802734375 24200.029296875 C -2444.012451171875 24197.529296875 -2441.053955078125 24196 -2437.849609375 24196 L -2408.617919921875 24196 C -2403.09521484375 24196 -2398.617919921875 24200.4765625 -2398.617919921875 24206 L -2398.617919921875 24444.951171875 C -2398.617919921875 24450.474609375 -2403.09521484375 24454.951171875 -2408.617919921875 24454.951171875 L -2556.3818359375 24454.951171875 C -2566.215087890625 24454.78515625 -2574.91015625 24454.70703125 -2583.134033203125 24454.70703125 C -2603.447998046875 24454.70703125 -2620.48583984375 24455.205078125 -2635.221923828125 24456.23046875 C -2650.927978515625 24457.330078125 -2664.137939453125 24459.03125 -2675.6025390625 24461.431640625 C -2687.240234375 24463.869140625 -2696.93017578125 24466.990234375 -2705.226318359375 24470.9765625 C -2709.294677734375 24472.9296875 -2713.072998046875 24475.123046875 -2716.4580078125 24477.498046875 C -2719.782958984375 24479.83203125 -2722.900146484375 24482.46875 -2725.7158203125 24485.328125 C -2737.54345703125 24497.376953125 -2745.05517578125 24514.615234375 -2749.343505859375 24539.564453125 C -2751.459716796875 24551.857421875 -2752.830810546875 24566.169921875 -2753.53564453125 24583.3203125 C -2754.1875 24599.0625 -2754.299072265625 24616.978515625 -2753.887451171875 24639.703125 L -2753.8857421875 25092.068359375 L -1865.28466796875 25092.068359375 L -1865.28466796875 24639.884765625 C -1864.871337890625 24616.966796875 -1864.983032226562 24599.0546875 -1865.634643554688 24583.33203125 C -1866.348510742188 24566.12890625 -1867.72021484375 24551.8125 -1869.826293945312 24539.56640625 C -1874.122436523438 24514.6171875 -1881.637939453125 24497.380859375 -1893.479125976562 24485.32421875 C -1896.279663085938 24482.47265625 -1899.390747070312 24479.841796875 -1902.723510742188 24477.505859375 C -1906.125244140625 24475.119140625 -1909.902465820312 24472.923828125 -1913.956909179688 24470.9765625 C -1922.263549804688 24466.990234375 -1931.952392578125 24463.8671875 -1943.575805664062 24461.431640625 C -1955.032958984375 24459.03125 -1968.243041992188 24457.330078125 -1983.960815429688 24456.228515625 C -1998.705200195312 24455.205078125 -2015.743530273438 24454.70703125 -2036.04296875 24454.70703125 C -2044.26025390625 24454.70703125 -2052.95458984375 24454.78515625 -2062.617919921875 24454.94921875 L -2210.552490234375 24454.951171875 C -2216.0751953125 24454.951171875 -2220.552490234375 24450.474609375 -2220.552490234375 24444.951171875 L -2220.552490234375 24206 C -2220.552490234375 24200.4765625 -2216.0751953125 24196 -2210.552490234375 24196 L -1088.170166015625 24196 C -1082.6474609375 24196 -1078.170166015625 24200.4765625 -1078.170166015625 24206 L -1078.170166015625 24444.951171875 C -1078.170166015625 24450.474609375 -1082.6474609375 24454.951171875 -1088.170166015625 24454.951171875 L -1210.780151367188 24454.951171875 C -1220.4501953125 24454.78515625 -1228.993041992188 24454.70703125 -1237.059692382812 24454.70703125 C -1257.61962890625 24454.70703125 -1274.739624023438 24455.236328125 -1289.399658203125 24456.328125 C -1305.069091796875 24457.494140625 -1318.164672851562 24459.302734375 -1329.432373046875 24461.853515625 C -1340.828002929688 24464.44140625 -1350.261840820312 24467.7578125 -1358.26904296875 24471.9921875 C -1362.158569335938 24474.044921875 -1365.785766601562 24476.376953125 -1369.056884765625 24478.9296875 C -1372.286865234375 24481.443359375 -1375.262939453125 24484.251953125 -1377.908569335938 24487.28125 C -1388.6279296875 24499.525390625 -1395.551879882812 24516.830078125 -1399.705200195312 24541.744140625 C -1401.719116210938 24553.82421875 -1403.120727539062 24567.927734375 -1403.990234375 24584.857421875 C -1404.77294921875 24600.02734375 -1405.137451171875 24617.51171875 -1405.137451171875 24639.884765625 L -1405.137451171875 25872.37109375 C -1405.137451171875 25894.33203125 -1404.77294921875 25911.498046875 -1403.99072265625 25926.390625 C -1403.120239257812 25943.02734375 -1401.718017578125 25956.873046875 -1399.7041015625 25968.71875 C -1395.559692382812 25993.169921875 -1388.650756835938 26010.166015625 -1377.960815429688 26022.2109375 C -1375.297973632812 26025.208984375 -1372.319702148438 26027.98046875 -1369.112426757812 26030.447265625 C -1365.850708007812 26032.95703125 -1362.223510742188 26035.255859375 -1358.3251953125 26037.287109375 C -1350.274658203125 26041.486328125 -1340.83740234375 26044.765625 -1329.468505859375 26047.314453125 C -1318.184692382812 26049.849609375 -1305.090209960938 26051.640625 -1289.43408203125 26052.796875 C -1274.74462890625 26053.8828125 -1257.629638671875 26054.41015625 -1237.109619140625 26054.41015625 C -1228.993530273438 26054.41015625 -1220.436889648438 26054.32421875 -1210.9541015625 26054.16015625 L -1088.170166015625 26054.158203125 C -1082.6474609375 26054.158203125 -1078.170166015625 26058.634765625 -1078.170166015625 26064.158203125 L -1078.170166015625 26303.115234375 C -1078.170166015625 26308.638671875 -1082.6474609375 26313.115234375 -1088.170166015625 26313.115234375 L -1426.601318359375 26313.115234375 L -1426.601318359375 27186.3984375 C -1426.601318359375 27264.876953125 -1419.35302734375 27272.373046875 -1340.429077148438 27275.53125 L -1288.743530273438 27275.5234375 C -1283.220703125 27275.5234375 -1278.743530273438 27280 -1278.743530273438 27285.5234375 L -1278.743530273438 27398.1015625 C -1278.743530273438 27403.625 -1283.220703125 27408.1015625 -1288.743530273438 27408.1015625 L -1768.274047851562 27408.1015625 L -1768.274047851562 27694.64453125 L -1597.609130859375 27694.64453125 C -1592.086303710938 27694.64453125 -1587.609130859375 27699.12109375 -1587.609130859375 27704.64453125 L -1587.609130859375 27760.43359375 C -1533.017333984375 27701.201171875 -1489.255126953125 27679.6015625 -1428.137451171875 27679.6015625 C -1382.36572265625 27679.6015625 -1335.50244140625 27696.890625 -1308.747436523438 27723.646484375 C -1281.75634765625 27750.626953125 -1271.720703125 27788.419921875 -1271.720703125 27863.0859375 L -1271.720703125 28048.611328125 C -1271.720703125 28093.23046875 -1269.054077148438 28095.98828125 -1224.161376953125 28097.78515625 L -1196.483032226562 28097.77734375 C -1190.960205078125 28097.77734375 -1186.483032226562 28102.255859375 -1186.483032226562 28107.77734375 L -1186.483032226562 28174.96875 C -1186.483032226562 28180.4921875 -1190.960205078125 28184.96875 -1196.483032226562 28184.96875 L -1479.27685546875 28184.96875 C -1484.799682617188 28184.96875 -1489.27685546875 28180.4921875 -1489.27685546875 28174.96875 L -1489.27685546875 28107.77734375 C -1489.27685546875 28102.255859375 -1484.799682617188 28097.77734375 -1479.27685546875 28097.77734375 L -1459.225219726562 28097.77734375 C -1414.726318359375 28095.986328125 -1412.05908203125 28093.23046875 -1412.05908203125 28048.611328125 L -1412.05908203125 27863.0859375 C -1412.05908203125 27822.216796875 -1415.081298828125 27811.19140625 -1424.162475585938 27798.806640625 C -1435.247924804688 27785.1875 -1454.840209960938 27776.8203125 -1476.267456054688 27776.8203125 C -1508.060180664062 27776.8203125 -1539.547485351562 27793.6796875 -1560.495727539062 27821.91796875 C -1581.289672851562 27849.32421875 -1587.609130859375 27873.91796875 -1587.609130859375 27927.26953125 L -1587.609130859375 28048.611328125 C -1587.609130859375 28093.23046875 -1584.9423828125 28095.98828125 -1540.049682617188 28097.78515625 L -1520.390747070312 28097.77734375 C -1514.868041992188 28097.77734375 -1510.390747070312 28102.255859375 -1510.390747070312 28107.77734375 L -1510.390747070312 28174.96875 C -1510.390747070312 28180.4921875 -1514.868041992188 28184.96875 -1520.390747070312 28184.96875 L -1767.402954101562 28184.96875 C -1763.706665039062 28250.208984375 -1747.167846679688 28260.201171875 -1657.09912109375 28263.802734375 L -1598.16796875 28263.794921875 C -1592.645263671875 28263.794921875 -1588.16796875 28268.271484375 -1588.16796875 28273.794921875 L -1588.16796875 28415.76171875 C -1588.16796875 28421.28515625 -1592.645263671875 28425.76171875 -1598.16796875 28425.76171875 L -2032.552978515625 28425.76171875 C -2038.075805664062 28425.76171875 -2042.552978515625 28421.28515625 -2042.552978515625 28415.76171875 L -2042.552978515625 28278.2890625 C -2125.1142578125 28409.947265625 -2210.45361328125 28455.4296875 -2365.22509765625 28455.4296875 C -2527.3349609375 28455.4296875 -2651.597900390625 28390.00390625 -2727.169189453125 28265.59765625 L -2727.169189453125 28437.775390625 C -2727.169189453125 28479.017578125 -2725.13525390625 28481.12109375 -2683.645263671875 28482.779296875 L -2657.944580078125 28482.771484375 C -2652.421875 28482.771484375 -2647.944580078125 28487.248046875 -2647.944580078125 28492.771484375 L -2647.944580078125 28555.212890625 C -2647.944580078125 28560.736328125 -2652.421875 28565.212890625 -2657.944580078125 28565.212890625 Z M -2280.468017578125 27518.36328125 C -2452.9501953125 27518.36328125 -2560.0986328125 27666.978515625 -2560.0986328125 27906.21484375 C -2560.0986328125 28157.298828125 -2458.1767578125 28301.302734375 -2280.468017578125 28301.302734375 C -2135.940185546875 28301.302734375 -2042.552978515625 28149.939453125 -2042.552978515625 27915.6875 C -2042.552978515625 27717.91796875 -2116.11865234375 27518.36328125 -2280.468017578125 27518.36328125 Z M -1768.274047851562 27782.14453125 L -1768.274047851562 28097.47265625 C -1730.343994140625 28095.568359375 -1727.95458984375 28090.822265625 -1727.95458984375 28048.611328125 L -1727.95458984375 27830.99609375 C -1727.95458984375 27788.90625 -1730.323852539062 27784.064453125 -1768.274047851562 27782.14453125 Z M -2778.396240234375 27537.083984375 C -2761.8408203125 27553.607421875 -2750.23291015625 27574.0390625 -2744.53466796875 27596.904296875 C -2735.19921875 27578.4140625 -2724.870361328125 27560.947265625 -2713.629638671875 27544.642578125 C -2735.546875 27543.02734375 -2757.183837890625 27540.501953125 -2778.396240234375 27537.083984375 Z M -2230.463623046875 27393.2265625 C -2155.181884765625 27416.14453125 -2098.400634765625 27463.814453125 -2042.552978515625 27551.4453125 L -2042.552978515625 27269.40625 C -2042.552978515625 27189.04296875 -2051.05615234375 27168.6875 -2094.423583984375 27160.017578125 C -2118.7734375 27241.958984375 -2149.19580078125 27298.544921875 -2204.718017578125 27365.974609375 C -2213.195068359375 27375.517578125 -2221.7890625 27384.611328125 -2230.463623046875 27393.2265625 Z M -2638.354248046875 26313.115234375 C -2889.896484375 26327.5078125 -3028.4169921875 26516.177734375 -3028.4169921875 26844.40234375 C -3028.4169921875 27170.9921875 -2878.27685546875 27365.970703125 -2626.79248046875 27365.970703125 C -2504.7646484375 27365.970703125 -2393.585693359375 27316.46875 -2329.388427734375 27233.55078125 C -2297.15966796875 27190.576171875 -2287.577880859375 27149.552734375 -2268.488037109375 27067.8203125 C -2264.319091796875 27049.970703125 -2259.718505859375 27030.275390625 -2254.349609375 27008.310546875 C -2253.979736328125 27006.796875 -2253.276123046875 27005.435546875 -2252.32861328125 27004.294921875 L -2252.32861328125 27002.421875 C -2252.32861328125 26996.8984375 -2247.851318359375 26992.421875 -2242.32861328125 26992.421875 L -1778.274047851562 26992.421875 C -1772.751342773438 26992.421875 -1768.274047851562 26996.8984375 -1768.274047851562 27002.421875 L -1768.274047851562 27275.5234375 L -1737.354125976562 27275.5234375 C -1657.293579101562 27272.375 -1649.905151367188 27264.87890625 -1649.905151367188 27186.3984375 L -1649.905151367188 26489.12109375 C -1649.905151367188 26410.6328125 -1657.293579101562 26403.134765625 -1737.746337890625 26399.978515625 L -1787.755249023438 26399.986328125 C -1793.277954101562 26399.986328125 -1797.755249023438 26395.509765625 -1797.755249023438 26389.986328125 L -1797.755249023438 26313.115234375 L -2140.138427734375 26313.115234375 C -2079.95703125 26385.51953125 -2047.0546875 26476.533203125 -2047.0546875 26571.798828125 C -2047.0546875 26691.916015625 -2124.471923828125 26772.619140625 -2239.697998046875 26772.619140625 C -2323.6484375 26772.619140625 -2387.255126953125 26719.373046875 -2397.974609375 26640.123046875 C -2399.08642578125 26631.919921875 -2399.626953125 26623.8359375 -2399.626953125 26615.4140625 C -2399.626953125 26534.197265625 -2359.056640625 26493.1171875 -2255.91552734375 26471.818359375 C -2299.74609375 26402.478515625 -2325.844482421875 26373.87109375 -2380.141357421875 26349.19140625 C -2420.855712890625 26328.841796875 -2484.025146484375 26316.41796875 -2563.1552734375 26313.107421875 L -2638.354248046875 26313.115234375 Z M -2398.617919921875 26165.234375 C -2348.337646484375 26176.232421875 -2303.81982421875 26191.8046875 -2266.186767578125 26211.568359375 C -2250.36181640625 26219.87890625 -2235.07666015625 26229.169921875 -2220.552490234375 26239.302734375 L -2220.552490234375 26064.158203125 C -2220.552490234375 26058.634765625 -2216.0751953125 26054.158203125 -2210.552490234375 26054.158203125 L -2062.7880859375 26054.158203125 C -2052.968505859375 26054.32421875 -2044.266845703125 26054.41015625 -2036.007446289062 26054.41015625 C -2015.130737304688 26054.41015625 -1997.718505859375 26053.8828125 -1982.7763671875 26052.794921875 C -1966.843505859375 26051.640625 -1953.524658203125 26049.845703125 -1942.05859375 26047.30859375 C -1930.4619140625 26044.748046875 -1920.859619140625 26041.462890625 -1912.697387695312 26037.263671875 C -1908.714111328125 26035.216796875 -1905.025756835938 26032.912109375 -1901.731811523438 26030.4140625 C -1898.455200195312 26027.927734375 -1895.438598632812 26025.15625 -1892.7646484375 26022.173828125 C -1881.930786132812 26010.14453125 -1874.943481445312 25993.1640625 -1870.759643554688 25968.712890625 C -1866.921875 25946.283203125 -1865.28466796875 25917.470703125 -1865.28466796875 25872.37109375 L -1865.28466796875 25363.59375 L -2753.8857421875 25363.59375 L -2753.8857421875 25872.37109375 C -2753.8857421875 25894.25390625 -2753.51904296875 25911.41796875 -2752.731201171875 25926.388671875 C -2751.856201171875 25943 -2750.443603515625 25956.841796875 -2748.41064453125 25968.705078125 C -2744.22900390625 25993.1484375 -2737.238525390625 26010.1328125 -2726.411865234375 26022.158203125 C -2723.718994140625 26025.15625 -2720.698974609375 26027.9296875 -2717.431396484375 26030.40625 C -2714.113525390625 26032.921875 -2710.423583984375 26035.228515625 -2706.46630859375 26037.259765625 C -2698.28125 26041.466796875 -2688.6796875 26044.75390625 -2677.109130859375 26047.306640625 C -2665.63134765625 26049.845703125 -2652.311767578125 26051.640625 -2636.387939453125 26052.794921875 C -2621.444580078125 26053.8828125 -2604.03466796875 26054.41015625 -2583.1630859375 26054.41015625 C -2574.903564453125 26054.41015625 -2566.201416015625 26054.32421875 -2556.552978515625 26054.16015625 C -2556.495849609375 26054.158203125 -2556.439208984375 26054.158203125 -2556.3818359375 26054.158203125 L -2408.617919921875 26054.158203125 C -2403.09521484375 26054.158203125 -2398.617919921875 26058.634765625 -2398.617919921875 26064.158203125 L -2398.617919921875 26165.234375 Z M -2503.38623046875 24252.849609375 C -2504.330322265625 24252.849609375 -2505.156982421875 24252.98828125 -2505.843505859375 24253.26171875 C -2506.444091796875 24253.5 -2506.91357421875 24253.802734375 -2507.302978515625 24254.193359375 C -2507.653076171875 24254.548828125 -2507.9375 24254.9765625 -2508.15380859375 24255.486328125 C -2506.910888671875 24254.94140625 -2505.5458984375 24254.642578125 -2504.1318359375 24254.642578125 C -2502.419921875 24254.642578125 -2501.323974609375 24254.47265625 -2500.674560546875 24254.314453125 C -2500.745849609375 24253.955078125 -2500.822509765625 24253.56640625 -2500.8251953125 24253.564453125 C -2501.210205078125 24253.21875 -2502.085693359375 24252.849609375 -2503.38623046875 24252.849609375 Z M -2871.00634765625 24227.138671875 L -2871.00634765625 24228.337890625 C -2870.82373046875 24228.2109375 -2870.636962890625 24228.091796875 -2870.446044921875 24227.978515625 C -2870.6357421875 24227.703125 -2870.822509765625 24227.423828125 -2871.00634765625 24227.138671875 Z" stroke="none" fill="red"/></g><path d="M8087.525,8943.2H8062.48a41.244,41.244,0,0,0-2.369-10.764,22.72,22.72,0,0,0-4.724-7.674,18.781,18.781,0,0,0-7.078-4.6,29.871,29.871,0,0,0-18.906.012,18.844,18.844,0,0,0-7.1,4.615,22.709,22.709,0,0,0-4.718,7.678,40.816,40.816,0,0,0-2.341,10.729h-25.086a40.185,40.185,0,0,1,5.068-15.049,39.213,39.213,0,0,1,10.31-11.554c8.67-6.558,20.2-10.023,33.335-10.023,13.2,0,24.707,3.436,33.287,9.937a39.511,39.511,0,0,1,15.362,26.689Zm-353.866,0h-25.945v-4.913h-53.556v4.913h-25.945v-44.039c0-4.453-.279-7.164-1.752-8.728a5.791,5.791,0,0,0-3.174-1.566,27.868,27.868,0,0,0-5.581-.405c-.489,0-.992,0-1.537.013h-7.228v-13.1H7675.1v13.1h-8.709c-.555-.009-1.067-.013-1.565-.013-5.119,0-7.542.527-8.94,1.945-1.556,1.578-1.811,4.405-1.726,8.754V8924.5h53.556v-25.336c.085-4.349-.17-7.175-1.726-8.754-1.4-1.418-3.821-1.945-8.939-1.945-.5,0-1.01,0-1.565.013h-8.709v-13.1h66.157v13.1H7745.7c-.545-.009-1.049-.013-1.537-.013a27.874,27.874,0,0,0-5.582.405,5.78,5.78,0,0,0-3.174,1.566c-1.473,1.564-1.752,4.274-1.752,8.728V8943.2Zm538.454,0h-16.066l5.4-12.67a15.493,15.493,0,0,0,1.3-5.17,3.391,3.391,0,0,0-1.922-3.317c-1.294-.677-3.274-.991-6.231-.991h-5V8909.5h44.476v11.549h-4.077a14.444,14.444,0,0,0-4.147.748,9.711,9.711,0,0,0-3.312,2.009c-1.934,1.757-3.691,4.5-6.068,9.479l-4.341,9.911Zm-36.4,0h-23.258l-5.679-11.807c-2.088-4.16-3.725-6.464-5.653-7.951s-4.294-2.211-7.874-2.391h-5.562V8909.5h53.187v11.549h-6.3c-2.763,0-4.756.573-5.765,1.658a2.7,2.7,0,0,0-.723,2.134,8.7,8.7,0,0,0,1.112,4.136l6.513,14.22Zm-99.037,0H8114.3v-11.98c0-4.186-.288-6.73-1.807-8.187s-4.242-1.814-8.755-1.981h-5.931V8909.5h38.732v12.065c3.608-5.3,6.995-8.8,10.656-11.03a23.761,23.761,0,0,1,12.879-3.274,27.193,27.193,0,0,1,8.733,1.379,21.277,21.277,0,0,1,6.926,3.834,17.428,17.428,0,0,1,4.563,5.839,17,17,0,0,1,1.645,7.389,15.458,15.458,0,0,1-1.091,5.825,13.428,13.428,0,0,1-3.055,4.582,13.748,13.748,0,0,1-4.689,3,16.489,16.489,0,0,1-5.99,1.074,14.1,14.1,0,0,1-9.151-2.864,10.557,10.557,0,0,1-.879-14.715c1.754-1.823,4.47-3.247,8.548-4.482a31.867,31.867,0,0,0-8.155-1.722,15.83,15.83,0,0,0-7.921,2.478,24.116,24.116,0,0,0-7.088,6.484,28.994,28.994,0,0,0-3.889,7.972,42.535,42.535,0,0,0-1.906,9.867Zm-185.823,0h-22.238v-21.8h-14.269v-11.2a45.681,45.681,0,0,0,11.052-3.487,20.51,20.51,0,0,0,7.317-5.8,26.818,26.818,0,0,0,4.434-9.257,78.927,78.927,0,0,0,2.4-13.86h11.674V8909.5h23.906V8921.4h-24.275v21.8Zm-64.639,0H7831.4a19.006,19.006,0,0,1-2.421-5.268,21.966,21.966,0,0,1-.8-6.022,22.414,22.414,0,0,1,2.433-10.358,23.312,23.312,0,0,1,6.88-8,32.982,32.982,0,0,1,10.7-5.154,50.354,50.354,0,0,1,13.9-1.825,43.785,43.785,0,0,1,13.3,1.852,56.331,56.331,0,0,1,13.018,6.248l3.892-6.2h10.563v29.818h-12.416a40.954,40.954,0,0,0-4.1-8.6,19.671,19.671,0,0,0-5.352-5.365,26.734,26.734,0,0,0-8.2-3.986,33.656,33.656,0,0,0-9.59-1.529c-4.1,0-7.55.871-9.985,2.521a7.946,7.946,0,0,0-3.729,6.787,6.8,6.8,0,0,0,2.549,5.494c1.7,1.432,4.262,2.509,7.831,3.295l16.493,3.621a98.9,98.9,0,0,1,9.859,2.67Zm-84.727,0h-22.424v-11.98c0-4.126-.288-6.643-1.806-8.121-1.538-1.5-4.375-1.885-8.756-2.047h-6.671V8909.5h39.657Zm-12.6-43.693a14.309,14.309,0,0,1-9.868-3.771,12.665,12.665,0,0,1-4.032-9.329,11.008,11.008,0,0,1,1.1-4.774,12.717,12.717,0,0,1,2.978-3.951,14.189,14.189,0,0,1,4.366-2.69,14.433,14.433,0,0,1,5.271-.994,14.17,14.17,0,0,1,9.706,3.728,12.243,12.243,0,0,1,4.007,9.026C7802.411,8893.787,7796.343,8899.509,7788.884,8899.509Z" transform="translate(-7438 -6669.703)" fill="none" stroke="#ff0001" stroke-linecap="round" stroke-linejoin="round" stroke-width="7"/></g></svg>