<svg xmlns="http://www.w3.org/2000/svg" width="776.005" height="3009.846" viewBox="0 0 776.005 3009.846"><g transform="translate(9517.358 -24205.5)" fill="none" stroke-linejoin="round"><path d="M-8794.633,27210.346h-2.5v-44.727h14.288c8.113-.322,13.276-.848,17.252-1.734,4.159-.93,7-2.3,8.953-4.316s3.217-4.9,4-9.078c.745-4.021,1.065-9.213,1.065-17.346v-109.686c0-12.512-.491-20.3-1.652-26.035a33,33,0,0,0-6.105-13.939,37.733,37.733,0,0,0-14.117-10.5,46.057,46.057,0,0,0-9.2-2.916,50.974,50.974,0,0,0-10.2-1.025,59.262,59.262,0,0,0-14.7,1.879,63.3,63.3,0,0,0-13.994,5.463,68.637,68.637,0,0,0-12.758,8.8,74.851,74.851,0,0,0-10.962,11.9l-.007.014-.007.008a81.885,81.885,0,0,0-7.936,12.484,67.427,67.427,0,0,0-5.1,13.537,102.607,102.607,0,0,0-2.772,16.637c-.566,6.092-.84,13.174-.84,21.643v71.74c0,8.133.32,13.324,1.065,17.346.778,4.174,2.049,7.057,4,9.078s4.795,3.387,8.961,4.316c3.975.887,9.138,1.412,17.258,1.734h14.274v44.727h-174.205v-44.727h21.384c8.114-.322,13.277-.848,17.252-1.734,4.159-.93,7.008-2.3,8.954-4.316s3.224-4.9,4-9.078c.744-4.021,1.065-9.213,1.065-17.346v-128.666c0-8.127-.321-13.316-1.065-17.34-.778-4.174-2.049-7.062-4-9.076s-4.795-3.389-8.954-4.316c-3.975-.895-9.138-1.414-17.252-1.742h-21.384v-27.223a233.838,233.838,0,0,1-42.193-6.742,194.733,194.733,0,0,1-39.387-14.793,178.587,178.587,0,0,1-33.965-22.463,185.031,185.031,0,0,1-28.261-29.838,214.309,214.309,0,0,1-22.312-36.922,267.76,267.76,0,0,1-16.166-43.7,349.587,349.587,0,0,1-9.842-50.213,461.4,461.4,0,0,1-3.319-56.467,459.82,459.82,0,0,1,3.613-58.811,343.754,343.754,0,0,1,10.7-51.975,260.693,260.693,0,0,1,17.559-44.857,207.966,207.966,0,0,1,24.191-37.428,181.539,181.539,0,0,1,30.576-29.654,179.783,179.783,0,0,1,36.669-21.541,202.163,202.163,0,0,1,42.439-13.105,250.984,250.984,0,0,1,47.876-4.426c20.66,0,38.239,1.666,53.75,5.1a141.721,141.721,0,0,1,43.279,16.91c12.949,7.8,24.771,17.914,36.137,30.918,9.363,10.7,18.521,23.5,27.864,38.951v-146.416c0-14.355-.566-23.535-1.9-30.691-1.427-7.684-3.8-13.039-7.492-16.844s-8.953-6.365-16.6-8.078c-7.083-1.586-16.234-2.508-30.6-3.08l-.71-.027-.587-.4-22.982-15.482h-224.566v-58.381h18.351c10.976-.443,17.962-1.146,23.357-2.355,5.765-1.291,9.726-3.211,12.465-6.045s4.521-6.85,5.6-12.635c1.011-5.465,1.447-12.484,1.447-23.475v-147.391c0-16.883-.669-27.395-2.233-35.152a45.28,45.28,0,0,0-8.38-19.082,48.08,48.08,0,0,0-8.537-8.141,55.46,55.46,0,0,0-10.771-6.236,62.862,62.862,0,0,0-12.539-3.969,69.122,69.122,0,0,0-13.878-1.393,80.619,80.619,0,0,0-19.977,2.547,86.143,86.143,0,0,0-18.994,7.41,93.127,93.127,0,0,0-17.292,11.939,100.938,100.938,0,0,0-14.861,16.125l-.007.006-.007.014a111.373,111.373,0,0,0-10.75,16.91,91.705,91.705,0,0,0-6.912,18.365,138.357,138.357,0,0,0-3.756,22.49c-.759,8.223-1.134,17.764-1.134,29.17v96.387c0,10.99.437,18.01,1.447,23.475,1.079,5.785,2.855,9.8,5.6,12.635s6.7,4.754,12.457,6.045c5.4,1.209,12.383,1.912,23.358,2.355h18.351v58.381h-232.373v-58.381h27.893c10.976-.443,17.962-1.146,23.357-2.355,5.758-1.291,9.719-3.211,12.457-6.045s4.528-6.85,5.6-12.635c1.018-5.465,1.448-12.484,1.448-23.475v-172.873c0-10.988-.431-18.01-1.448-23.473-1.072-5.785-2.854-9.8-5.6-12.635s-6.7-4.762-12.457-6.045c-5.4-1.209-12.382-1.92-23.357-2.355h-13.734v.178h-149.734v-378.105h64.8v49.746a198.943,198.943,0,0,1,23.167-29.1,111.024,111.024,0,0,1,21.015-16.992h-18.037v-60.059h27.038c11.55-.451,18.905-1.176,24.58-2.426,6.079-1.338,10.252-3.326,13.141-6.262s4.754-7.09,5.874-13.066c1.059-5.621,1.509-12.867,1.509-24.211v-252.139c-5.43,5.375-11.016,10.477-16.657,15.211a250.031,250.031,0,0,1-22.395,16.746,242.79,242.79,0,0,1-23.973,13.98,250.864,250.864,0,0,1-25.714,11.275c-22.452,8.389-47.033,14.02-74.348,16.992v-86.756q5.313-.847,10.552-1.949a206.321,206.321,0,0,0,41.832-13.543,182.4,182.4,0,0,0,36.163-21.445,156.269,156.269,0,0,0,28.691-28.383,116.555,116.555,0,0,0,14.629-25.666,217.041,217.041,0,0,0,9.364-29.115c-5.471-1.08-12.655-1.742-23.249-2.158h-27.038v-60.041h65.578l.021-.047h92v.047h18.748v446.99c0,11.33.45,18.576,1.5,24.219,1.113,5.975,2.95,10.127,5.792,13.072,2.841,2.93,6.932,4.916,12.888,6.248,5.573,1.25,12.778,1.975,24.095,2.426h27.872v60.059h-122.149a90.213,90.213,0,0,1,11.877,8.354,84,84,0,0,1,16.166,17.963,82.232,82.232,0,0,1,10.334,22.025,88.214,88.214,0,0,1,3.626,25.283,78.764,78.764,0,0,1-4.835,27.762,64.836,64.836,0,0,1-13.612,21.986,61.012,61.012,0,0,1-20.933,14.416,68.634,68.634,0,0,1-26.629,5.156,70.893,70.893,0,0,1-22.969-3.578,51.492,51.492,0,0,1-17.887-10.285,45.4,45.4,0,0,1-11.562-16.186,53.4,53.4,0,0,1-4.05-20.982,59.314,59.314,0,0,1,2.766-18.959,43.065,43.065,0,0,1,8.872-15.318,58.961,58.961,0,0,1,15.415-11.973,109.041,109.041,0,0,1,15.2-6.945c-11.891-3.635-21.165-5.547-27.059-5.547a49.7,49.7,0,0,0-15.94,2.863,76.922,76.922,0,0,0-16.645,8.174,99.771,99.771,0,0,0-15.9,12.744,107.09,107.09,0,0,0-13.748,16.488,120.179,120.179,0,0,0-10.436,19.676,169.435,169.435,0,0,0-7.868,23.486,207.431,207.431,0,0,0-4.951,26.213,227.567,227.567,0,0,0-1.715,27.857v101.033c0,10.77.431,17.674,1.448,23.1,1.079,5.764,2.854,9.787,5.6,12.668,2.766,2.9,6.72,4.877,12.457,6.223,5.416,1.27,12.6,2.029,23.3,2.465h27.975v-.266h171.159v61.07a378.273,378.273,0,0,1,30.446-31.7,183.42,183.42,0,0,1,32.394-24.17,124.749,124.749,0,0,1,32.9-13.2,152.023,152.023,0,0,1,36.115-3.961,149.182,149.182,0,0,1,50.745,9.014c16.22,5.943,30.07,14.371,40.063,24.383,10.463,10.484,17.334,23.193,21.623,39.988a184.641,184.641,0,0,1,4.7,29.225c.971,10.8,1.435,23.139,1.435,37.713v147.391c0,10.99.438,18.01,1.448,23.475,1.079,5.785,2.854,9.8,5.6,12.635s6.706,4.754,12.464,6.045c5.143,1.154,11.74,1.85,21.848,2.293v-.143h167.492v976.215Zm-31.54-334.947a212.857,212.857,0,0,1-20.216,24.531,149.777,149.777,0,0,1-21.793,18.748,133.168,133.168,0,0,1-14.049,8.605h20.291v44.379a253.6,253.6,0,0,1,26.793-26.93,122.42,122.42,0,0,1,23.767-16.043v-76.049C-8816.352,26860.98-8821.228,26868.479-8826.173,26875.4Zm-135.951-384.881a117.113,117.113,0,0,0-27.94,10.77c-16.9,9.2-31.5,22.709-43.4,40.146-11.569,16.957-20.488,37.467-26.5,60.947-5.948,23.234-8.967,49.018-8.967,76.629,0,29.205,2.943,56.064,8.748,79.832,5.874,24.055,14.664,44.865,26.131,61.863a130.741,130.741,0,0,0,19.506,22.914,114.057,114.057,0,0,0,23.794,16.965,117.521,117.521,0,0,0,28.152,10.566,141.969,141.969,0,0,0,32.632,3.641,92.661,92.661,0,0,0,50.328-14.262c14.391-9.111,26.9-22.469,37.175-39.721,10.08-16.924,17.866-37.324,23.146-60.635,5.272-23.281,7.942-49.023,7.942-76.525,0-27.553-2.67-53.607-7.942-77.43-5.307-23.951-13.1-45.027-23.166-62.635-10.334-18.057-22.853-32.086-37.209-41.682a88.871,88.871,0,0,0-50.273-15.127A135.431,135.431,0,0,0-8962.124,26490.518Zm-418.394-1570.768a73.976,73.976,0,0,1-23.508-13.2,70.419,70.419,0,0,1-16.747-20.537,77.189,77.189,0,0,1-8.5-26.539,89.371,89.371,0,0,1-.819-12.17c0-10.826,1.455-19.924,4.453-27.824a52.651,52.651,0,0,1,5.8-11.154,52.115,52.115,0,0,1,8.326-9.4c6.283-5.607,14.239-10.217,24.307-14.09a185.8,185.8,0,0,1,31.368-8.518c-10.791-17.285-20.175-31.027-30.146-41.5-10.013-10.512-20.708-17.922-35.754-24.779l-.041-.02-.041-.021c-13.591-6.8-31.9-11.869-54.412-15.045-9.6-1.352-20.011-2.369-30.952-3.012q-2.566-.152-5.177-.275V24210.5h125.584v55.82h-33.909c-2.015-.027-3.838-.049-5.56-.049-8.864,0-14.9.438-19.6,1.422-4.795,1-8.121,2.58-10.464,4.971-2.465,2.508-4.029,6.113-4.931,11.344-.84,4.9-1.141,11.447-.963,21.24v95.855h187.912v-95.855c.178-9.793-.123-16.342-.963-21.24-.9-5.23-2.466-8.836-4.931-11.344-2.35-2.391-5.676-3.967-10.464-4.971-4.7-.984-10.743-1.422-19.6-1.422-1.722,0-3.545.021-5.56.049h-33.916v-55.82h243.3v55.82H-9135c-1.981-.027-3.764-.049-5.457-.049-8.927,0-14.964.465-19.574,1.51-4.665,1.059-7.882,2.738-10.115,5.285s-3.674,6.168-4.548,11.4c-.807,4.842-1.154,11.07-1.154,20.822v262.166c0,9.555.348,15.666,1.154,20.42.867,5.129,2.3,8.688,4.521,11.193,2.233,2.521,5.437,4.18,10.088,5.225,4.61,1.045,10.627,1.5,19.5,1.5,1.734,0,3.558-.014,5.587-.049h28.575v55.834H-9339.7a204.534,204.534,0,0,1,20.175,16.889,201.619,201.619,0,0,1,34.319,43.129,203.316,203.316,0,0,1,28.282,103.6,116.464,116.464,0,0,1-6.83,40.459,90.154,90.154,0,0,1-19.362,31.377,85.349,85.349,0,0,1-30.037,20.229,102.761,102.761,0,0,1-38.628,7.137A87.738,87.738,0,0,1-9380.518,24919.75Zm-40.146-314h33.889v29.785a219.249,219.249,0,0,1,20.421,9.391q8.565,4.506,16.631,9.732v-48.908h33.916c2.063.035,3.92.049,5.683.049,9.035,0,15.161-.459,19.847-1.5,4.733-1.045,8-2.711,10.258-5.238,2.247-2.5,3.7-6.051,4.576-11.18.806-4.746,1.154-10.852,1.154-20.42v-107.861H-9462.2v107.861c0,9.568.349,15.674,1.154,20.42.881,5.123,2.329,8.68,4.583,11.18,2.261,2.527,5.518,4.193,10.258,5.238,4.686,1.045,10.8,1.5,19.84,1.5,1.756,0,3.62-.014,5.683-.049Z" stroke="none"/><path d="M -8746.353515625 27210.345703125 L -8746.353515625 26234.130859375 L -8913.845703125 26234.130859375 L -8913.845703125 26234.2734375 C -8923.953125 26233.830078125 -8930.55078125 26233.134765625 -8935.693359375 26231.98046875 C -8941.451171875 26230.689453125 -8945.412109375 26228.76953125 -8948.1572265625 26225.935546875 C -8950.9033203125 26223.1015625 -8952.6787109375 26219.0859375 -8953.7578125 26213.30078125 C -8954.7685546875 26207.8359375 -8955.2060546875 26200.81640625 -8955.2060546875 26189.826171875 L -8955.2060546875 26042.435546875 C -8955.2060546875 26027.861328125 -8955.669921875 26015.525390625 -8956.640625 26004.72265625 C -8957.64453125 25993.5078125 -8959.1806640625 25983.953125 -8961.3388671875 25975.498046875 C -8965.6279296875 25958.703125 -8972.4990234375 25945.994140625 -8982.9619140625 25935.509765625 C -8992.9541015625 25925.498046875 -9006.8046875 25917.0703125 -9023.0244140625 25911.126953125 C -9039.1357421875 25905.2265625 -9056.681640625 25902.11328125 -9073.76953125 25902.11328125 C -9087.0732421875 25902.11328125 -9098.888671875 25903.41015625 -9109.884765625 25906.07421875 C -9121.37890625 25908.8671875 -9132.142578125 25913.18359375 -9142.783203125 25919.26953125 C -9153.4375 25925.3671875 -9164.0302734375 25933.26953125 -9175.1767578125 25943.439453125 C -9184.6767578125 25952.10546875 -9194.67578125 25962.513671875 -9205.623046875 25975.134765625 L -9205.623046875 25914.064453125 L -9376.7822265625 25914.064453125 L -9376.7822265625 25914.330078125 L -9404.7568359375 25914.330078125 C -9415.4521484375 25913.89453125 -9422.63671875 25913.134765625 -9428.052734375 25911.865234375 C -9433.7900390625 25910.51953125 -9437.744140625 25908.546875 -9440.509765625 25905.642578125 C -9443.255859375 25902.76171875 -9445.03125 25898.73828125 -9446.1103515625 25892.974609375 C -9447.1279296875 25887.55078125 -9447.55859375 25880.646484375 -9447.55859375 25869.876953125 L -9447.55859375 25768.84375 C -9447.55859375 25759.515625 -9446.9775390625 25750.14453125 -9445.84375 25740.986328125 C -9444.7236328125 25731.970703125 -9443.0576171875 25723.154296875 -9440.892578125 25714.7734375 C -9438.734375 25706.435546875 -9436.0908203125 25698.533203125 -9433.0244140625 25691.287109375 C -9429.9375 25684 -9426.4267578125 25677.375 -9422.5888671875 25671.611328125 C -9418.5869140625 25665.689453125 -9413.962890625 25660.142578125 -9408.8408203125 25655.123046875 C -9403.85546875 25650.234375 -9398.5078125 25645.951171875 -9392.94140625 25642.37890625 C -9387.416015625 25638.833984375 -9381.8154296875 25636.08203125 -9376.296875 25634.205078125 C -9370.7177734375 25632.3046875 -9365.3564453125 25631.341796875 -9360.3564453125 25631.341796875 C -9354.462890625 25631.341796875 -9345.1884765625 25633.25390625 -9333.2978515625 25636.888671875 C -9339.0615234375 25639.052734375 -9344.0751953125 25641.34765625 -9348.4931640625 25643.833984375 C -9354.859375 25647.40625 -9359.8994140625 25651.326171875 -9363.908203125 25655.806640625 C -9367.951171875 25660.341796875 -9370.8544921875 25665.353515625 -9372.7802734375 25671.125 C -9374.64453125 25676.71875 -9375.5458984375 25682.919921875 -9375.5458984375 25690.083984375 C -9375.5458984375 25697.671875 -9374.1865234375 25704.7265625 -9371.49609375 25711.06640625 C -9368.845703125 25717.30859375 -9364.953125 25722.751953125 -9359.93359375 25727.251953125 C -9354.947265625 25731.724609375 -9348.923828125 25735.1875 -9342.046875 25737.537109375 C -9335.1005859375 25739.9140625 -9327.369140625 25741.115234375 -9319.078125 25741.115234375 C -9309.591796875 25741.115234375 -9300.630859375 25739.380859375 -9292.44921875 25735.958984375 C -9284.46484375 25732.626953125 -9277.423828125 25727.77734375 -9271.5166015625 25721.54296875 C -9265.62890625 25715.333984375 -9261.052734375 25707.9375 -9257.904296875 25699.556640625 C -9254.701171875 25691.01953125 -9253.0693359375 25681.677734375 -9253.0693359375 25671.794921875 C -9253.0693359375 25663.060546875 -9254.2919921875 25654.548828125 -9256.6953125 25646.51171875 C -9259.044921875 25638.6640625 -9262.521484375 25631.25390625 -9267.029296875 25624.486328125 C -9271.4755859375 25617.806640625 -9276.912109375 25611.76171875 -9283.1953125 25606.5234375 C -9286.8896484375 25603.44921875 -9290.857421875 25600.65625 -9295.072265625 25598.169921875 L -9172.9228515625 25598.169921875 L -9172.9228515625 25538.111328125 L -9200.794921875 25538.111328125 C -9212.111328125 25537.66015625 -9219.31640625 25536.935546875 -9224.8896484375 25535.685546875 C -9230.845703125 25534.353515625 -9234.9365234375 25532.3671875 -9237.77734375 25529.4375 C -9240.619140625 25526.4921875 -9242.4560546875 25522.33984375 -9243.5693359375 25516.365234375 C -9244.6142578125 25510.72265625 -9245.064453125 25503.4765625 -9245.064453125 25492.146484375 L -9245.064453125 25045.15625 L -9263.8125 25045.15625 L -9263.8125 25045.109375 L -9355.8154296875 25045.109375 L -9355.8359375 25045.15625 L -9421.4140625 25045.15625 L -9421.4140625 25105.197265625 L -9394.3759765625 25105.197265625 C -9383.7822265625 25105.61328125 -9376.59765625 25106.275390625 -9371.126953125 25107.35546875 C -9374.37109375 25119.77734375 -9377.212890625 25128.587890625 -9380.4912109375 25136.470703125 C -9384.4111328125 25145.880859375 -9389.0615234375 25154.03515625 -9395.1201171875 25162.13671875 C -9403.1650390625 25172.55078125 -9412.822265625 25182.099609375 -9423.8115234375 25190.51953125 C -9434.6982421875 25198.859375 -9446.861328125 25206.072265625 -9459.974609375 25211.96484375 C -9473.1357421875 25217.873046875 -9487.2119140625 25222.427734375 -9501.806640625 25225.5078125 C -9505.296875 25226.244140625 -9508.81640625 25226.892578125 -9512.3583984375 25227.45703125 L -9512.3583984375 25314.212890625 C -9485.0439453125 25311.240234375 -9460.462890625 25305.609375 -9438.0107421875 25297.220703125 C -9429.1796875 25293.921875 -9420.5263671875 25290.125 -9412.296875 25285.9453125 C -9404.080078125 25281.765625 -9396.0078125 25277.05859375 -9388.32421875 25271.96484375 C -9380.6611328125 25266.8828125 -9373.1279296875 25261.255859375 -9365.9296875 25255.21875 C -9360.2880859375 25250.484375 -9354.7021484375 25245.3828125 -9349.2724609375 25240.0078125 L -9349.2724609375 25492.146484375 C -9349.2724609375 25503.490234375 -9349.72265625 25510.736328125 -9350.78125 25516.357421875 C -9351.9013671875 25522.333984375 -9353.7666015625 25526.486328125 -9356.6552734375 25529.423828125 C -9359.5439453125 25532.359375 -9363.716796875 25534.34765625 -9369.7958984375 25535.685546875 C -9375.470703125 25536.935546875 -9382.826171875 25537.66015625 -9394.3759765625 25538.111328125 L -9421.4140625 25538.111328125 L -9421.4140625 25598.169921875 L -9403.376953125 25598.169921875 C -9410.6435546875 25602.630859375 -9417.5830078125 25608.244140625 -9424.3916015625 25615.162109375 C -9432.0888671875 25622.9765625 -9439.7109375 25632.544921875 -9447.55859375 25644.263671875 L -9447.55859375 25594.517578125 L -9512.3583984375 25594.517578125 L -9512.3583984375 25972.623046875 L -9362.6240234375 25972.623046875 L -9362.6240234375 25972.4453125 L -9348.8896484375 25972.4453125 C -9337.9140625 25972.880859375 -9330.927734375 25973.591796875 -9325.5322265625 25974.80078125 C -9319.7744140625 25976.083984375 -9315.8134765625 25978.01171875 -9313.0751953125 25980.845703125 C -9310.3291015625 25983.6796875 -9308.546875 25987.6953125 -9307.474609375 25993.48046875 C -9306.45703125 25998.943359375 -9306.0263671875 26005.96484375 -9306.0263671875 26016.953125 L -9306.0263671875 26189.826171875 C -9306.0263671875 26200.81640625 -9306.45703125 26207.8359375 -9307.474609375 26213.30078125 C -9308.546875 26219.0859375 -9310.3291015625 26223.1015625 -9313.0751953125 26225.935546875 C -9315.8134765625 26228.76953125 -9319.7744140625 26230.689453125 -9325.5322265625 26231.98046875 C -9330.927734375 26233.189453125 -9337.9140625 26233.892578125 -9348.8896484375 26234.3359375 L -9376.7822265625 26234.3359375 L -9376.7822265625 26292.716796875 L -9144.4091796875 26292.716796875 L -9144.4091796875 26234.3359375 L -9162.759765625 26234.3359375 C -9173.7353515625 26233.892578125 -9180.72265625 26233.189453125 -9186.1181640625 26231.98046875 C -9191.875 26230.689453125 -9195.8359375 26228.76953125 -9198.5751953125 26225.935546875 C -9201.3203125 26223.1015625 -9203.0966796875 26219.0859375 -9204.17578125 26213.30078125 C -9205.1865234375 26207.8359375 -9205.623046875 26200.81640625 -9205.623046875 26189.826171875 L -9205.623046875 26093.439453125 C -9205.623046875 26082.033203125 -9205.248046875 26072.4921875 -9204.4892578125 26064.26953125 C -9203.7041015625 26055.767578125 -9202.474609375 26048.412109375 -9200.7333984375 26041.779296875 C -9199.0126953125 26035.216796875 -9196.751953125 26029.20703125 -9193.8212890625 26023.4140625 C -9191.021484375 26017.888671875 -9187.50390625 26012.357421875 -9183.0712890625 26006.50390625 L -9183.064453125 26006.490234375 L -9183.0576171875 26006.484375 C -9178.646484375 26000.521484375 -9173.646484375 25995.099609375 -9168.1962890625 25990.359375 C -9162.8349609375 25985.693359375 -9157.0166015625 25981.677734375 -9150.904296875 25978.419921875 C -9144.8115234375 25975.17578125 -9138.4189453125 25972.68359375 -9131.91015625 25971.009765625 C -9125.3271484375 25969.32421875 -9118.6064453125 25968.462890625 -9111.93359375 25968.462890625 C -9107.2138671875 25968.462890625 -9102.54296875 25968.93359375 -9098.0556640625 25969.85546875 C -9093.677734375 25970.7578125 -9089.45703125 25972.095703125 -9085.5166015625 25973.82421875 C -9081.623046875 25975.5390625 -9078.00390625 25977.634765625 -9074.74609375 25980.060546875 C -9071.515625 25982.4765625 -9068.640625 25985.208984375 -9066.208984375 25988.201171875 C -9061.76953125 25994.271484375 -9059.3447265625 25999.810546875 -9057.8291015625 26007.283203125 C -9056.2646484375 26015.041015625 -9055.595703125 26025.552734375 -9055.595703125 26042.435546875 L -9055.595703125 26189.826171875 C -9055.595703125 26200.81640625 -9056.0322265625 26207.8359375 -9057.04296875 26213.30078125 C -9058.1220703125 26219.0859375 -9059.8984375 26223.1015625 -9062.6435546875 26225.935546875 C -9065.3828125 26228.76953125 -9069.34375 26230.689453125 -9075.1083984375 26231.98046875 C -9080.50390625 26233.189453125 -9087.490234375 26233.892578125 -9098.4658203125 26234.3359375 L -9116.81640625 26234.3359375 L -9116.81640625 26292.716796875 L -8892.25 26292.716796875 L -8868.6806640625 26308.595703125 L -8867.970703125 26308.623046875 C -8853.607421875 26309.1953125 -8844.4560546875 26310.1171875 -8837.373046875 26311.703125 C -8829.7236328125 26313.416015625 -8824.4443359375 26315.984375 -8820.7705078125 26319.78125 C -8817.08203125 26323.5859375 -8814.705078125 26328.94140625 -8813.2783203125 26336.625 C -8811.9462890625 26343.78125 -8811.3798828125 26352.9609375 -8811.3798828125 26367.31640625 L -8811.3798828125 26513.732421875 C -8820.72265625 26498.283203125 -8829.880859375 26485.484375 -8839.244140625 26474.78125 C -8850.609375 26461.77734375 -8862.431640625 26451.6640625 -8875.380859375 26443.86328125 C -8888.330078125 26436.056640625 -8902.4873046875 26430.533203125 -8918.66015625 26426.953125 C -8934.1708984375 26423.517578125 -8951.75 26421.8515625 -8972.41015625 26421.8515625 C -8989.115234375 26421.8515625 -9005.2197265625 26423.33984375 -9020.2861328125 26426.27734375 C -9035.263671875 26429.193359375 -9049.5380859375 26433.60546875 -9062.7255859375 26439.3828125 C -9075.8525390625 26445.1484375 -9088.193359375 26452.38671875 -9099.39453125 26460.923828125 C -9110.5673828125 26469.43359375 -9120.8603515625 26479.412109375 -9129.970703125 26490.578125 C -9139.08203125 26501.73828125 -9147.22265625 26514.326171875 -9154.162109375 26528.005859375 C -9161.12109375 26541.70703125 -9167.0283203125 26556.798828125 -9171.720703125 26572.86328125 C -9176.4404296875 26589.001953125 -9180.0390625 26606.4921875 -9182.4228515625 26624.837890625 C -9184.8203125 26643.33203125 -9186.0361328125 26663.1171875 -9186.0361328125 26683.6484375 C -9186.0361328125 26703.32421875 -9184.9228515625 26722.31640625 -9182.716796875 26740.115234375 C -9180.5244140625 26757.783203125 -9177.21875 26774.673828125 -9172.875 26790.328125 C -9168.55859375 26805.8984375 -9163.115234375 26820.603515625 -9156.708984375 26834.0234375 C -9150.3095703125 26847.416015625 -9142.8037109375 26859.83984375 -9134.396484375 26870.9453125 C -9125.982421875 26882.05078125 -9116.46875 26892.08984375 -9106.1357421875 26900.783203125 C -9095.7744140625 26909.498046875 -9084.3486328125 26917.052734375 -9072.1708984375 26923.24609375 C -9059.953125 26929.4609375 -9046.6962890625 26934.43359375 -9032.7841796875 26938.0390625 C -9019.494140625 26941.482421875 -9005.30859375 26943.75 -8990.5908203125 26944.78125 L -8990.5908203125 26972.00390625 L -8969.20703125 26972.00390625 C -8961.0927734375 26972.33203125 -8955.9296875 26972.8515625 -8951.955078125 26973.74609375 C -8947.7958984375 26974.673828125 -8944.947265625 26976.046875 -8943.0009765625 26978.0625 C -8941.0478515625 26980.076171875 -8939.77734375 26982.96484375 -8938.9990234375 26987.138671875 C -8938.2548828125 26991.162109375 -8937.93359375 26996.3515625 -8937.93359375 27004.478515625 L -8937.93359375 27133.14453125 C -8937.93359375 27141.27734375 -8938.2548828125 27146.46875 -8938.9990234375 27150.490234375 C -8939.77734375 27154.6640625 -8941.0478515625 27157.546875 -8943.0009765625 27159.568359375 C -8944.947265625 27161.58203125 -8947.7958984375 27162.955078125 -8951.955078125 27163.884765625 C -8955.9296875 27164.771484375 -8961.0927734375 27165.296875 -8969.20703125 27165.619140625 L -8990.5908203125 27165.619140625 L -8990.5908203125 27210.345703125 L -8816.3857421875 27210.345703125 L -8816.3857421875 27165.619140625 L -8830.66015625 27165.619140625 C -8838.7802734375 27165.296875 -8843.943359375 27164.771484375 -8847.91796875 27163.884765625 C -8852.083984375 27162.955078125 -8854.92578125 27161.58203125 -8856.87890625 27159.568359375 C -8858.8251953125 27157.546875 -8860.095703125 27154.6640625 -8860.8740234375 27150.490234375 C -8861.619140625 27146.46875 -8861.939453125 27141.27734375 -8861.939453125 27133.14453125 L -8861.939453125 27061.404296875 C -8861.939453125 27052.935546875 -8861.666015625 27045.853515625 -8861.099609375 27039.76171875 C -8860.51953125 27033.46484375 -8859.6103515625 27028.02734375 -8858.3271484375 27023.125 C -8857.056640625 27018.2890625 -8855.3896484375 27013.85546875 -8853.224609375 27009.587890625 C -8851.162109375 27005.509765625 -8848.5673828125 27001.43359375 -8845.2890625 26997.103515625 L -8845.2822265625 26997.095703125 L -8845.275390625 26997.08203125 C -8842.017578125 26992.68359375 -8838.3291015625 26988.681640625 -8834.3134765625 26985.185546875 C -8830.3525390625 26981.7421875 -8826.0634765625 26978.779296875 -8821.5556640625 26976.380859375 C -8817.068359375 26973.9921875 -8812.3564453125 26972.146484375 -8807.5615234375 26970.91796875 C -8802.7197265625 26969.67578125 -8797.767578125 26969.0390625 -8792.857421875 26969.0390625 C -8789.3876953125 26969.0390625 -8785.9521484375 26969.388671875 -8782.6533203125 26970.064453125 C -8779.4443359375 26970.7265625 -8776.3427734375 26971.7109375 -8773.4541015625 26972.98046875 C -8767.7783203125 26975.47265625 -8762.90234375 26979.107421875 -8759.3369140625 26983.484375 C -8756.099609375 26987.91796875 -8754.3310546875 26991.9609375 -8753.2314453125 26997.423828125 C -8752.0703125 27003.154296875 -8751.5791015625 27010.947265625 -8751.5791015625 27023.458984375 L -8751.5791015625 27133.14453125 C -8751.5791015625 27141.27734375 -8751.8994140625 27146.46875 -8752.64453125 27150.490234375 C -8753.4228515625 27154.6640625 -8754.6865234375 27157.546875 -8756.6396484375 27159.568359375 C -8758.5927734375 27161.58203125 -8761.43359375 27162.955078125 -8765.5927734375 27163.884765625 C -8769.568359375 27164.771484375 -8774.7314453125 27165.296875 -8782.8447265625 27165.619140625 L -8797.1328125 27165.619140625 L -8797.1328125 27210.345703125 L -8746.353515625 27210.345703125 M -8811.3798828125 26852.640625 L -8811.3798828125 26928.689453125 C -8819.294921875 26932.677734375 -8827.1220703125 26937.96484375 -8835.146484375 26944.732421875 C -8843.4521484375 26951.740234375 -8852.248046875 26960.583984375 -8861.939453125 26971.662109375 L -8861.939453125 26927.283203125 L -8882.23046875 26927.283203125 C -8877.3955078125 26924.72265625 -8872.7509765625 26921.873046875 -8868.181640625 26918.677734375 C -8860.560546875 26913.3359375 -8853.4296875 26907.203125 -8846.388671875 26899.9296875 C -8839.4697265625 26892.779296875 -8832.8583984375 26884.75390625 -8826.1728515625 26875.3984375 C -8821.2275390625 26868.478515625 -8816.3515625 26860.98046875 -8811.3798828125 26852.640625 M -8929.970703125 26486.775390625 C -8911.6259765625 26486.775390625 -8894.708984375 26491.86328125 -8879.697265625 26501.90234375 C -8865.3408203125 26511.498046875 -8852.822265625 26525.52734375 -8842.48828125 26543.583984375 C -8832.421875 26561.19140625 -8824.62890625 26582.267578125 -8819.322265625 26606.21875 C -8814.0498046875 26630.041015625 -8811.3798828125 26656.095703125 -8811.3798828125 26683.6484375 C -8811.3798828125 26711.150390625 -8814.0498046875 26736.892578125 -8819.322265625 26760.173828125 C -8824.6015625 26783.484375 -8832.3876953125 26803.884765625 -8842.4677734375 26820.80859375 C -8852.740234375 26838.060546875 -8865.251953125 26851.41796875 -8879.642578125 26860.529296875 C -8894.6064453125 26869.98828125 -8911.537109375 26874.791015625 -8929.970703125 26874.791015625 C -8941.41015625 26874.791015625 -8952.3857421875 26873.568359375 -8962.6025390625 26871.150390625 C -8972.5673828125 26868.787109375 -8982.0400390625 26865.228515625 -8990.7548828125 26860.583984375 C -8999.298828125 26856.029296875 -9007.302734375 26850.326171875 -9014.548828125 26843.619140625 C -9021.6865234375 26837.021484375 -9028.2490234375 26829.310546875 -9034.0546875 26820.705078125 C -9045.521484375 26803.70703125 -9054.3115234375 26782.896484375 -9060.185546875 26758.841796875 C -9065.990234375 26735.07421875 -9068.93359375 26708.21484375 -9068.93359375 26679.009765625 C -9068.93359375 26651.3984375 -9065.9150390625 26625.615234375 -9059.966796875 26602.380859375 C -9053.9560546875 26578.900390625 -9045.037109375 26558.390625 -9033.4677734375 26541.43359375 C -9021.5634765625 26523.99609375 -9006.9609375 26510.48828125 -8990.064453125 26501.287109375 C -8981.36328125 26496.5625 -8971.9658203125 26492.935546875 -8962.1240234375 26490.517578125 C -8951.99609375 26488.0390625 -8941.1845703125 26486.775390625 -8929.970703125 26486.775390625 M -9351.7783203125 24924.400390625 C -9337.8798828125 24924.400390625 -9324.8837890625 24921.998046875 -9313.150390625 24917.263671875 C -9301.62109375 24912.619140625 -9291.513671875 24905.818359375 -9283.11328125 24897.03515625 C -9274.712890625 24888.2578125 -9268.197265625 24877.69921875 -9263.7509765625 24865.658203125 C -9259.2158203125 24853.37890625 -9256.9208984375 24839.767578125 -9256.9208984375 24825.19921875 C -9256.9208984375 24788.654296875 -9266.701171875 24752.826171875 -9285.203125 24721.599609375 C -9294.6005859375 24705.7421875 -9306.142578125 24691.228515625 -9319.5224609375 24678.470703125 C -9325.853515625 24672.43359375 -9332.59375 24666.79296875 -9339.697265625 24661.58203125 L -9106.421875 24661.58203125 L -9106.421875 24605.748046875 L -9134.9970703125 24605.748046875 C -9137.0263671875 24605.783203125 -9138.849609375 24605.796875 -9140.583984375 24605.796875 C -9149.4560546875 24605.796875 -9155.47265625 24605.337890625 -9160.0830078125 24604.29296875 C -9164.734375 24603.248046875 -9167.9375 24601.58984375 -9170.1708984375 24599.068359375 C -9172.3896484375 24596.5625 -9173.82421875 24593.00390625 -9174.69140625 24587.875 C -9175.498046875 24583.12109375 -9175.845703125 24577.009765625 -9175.845703125 24567.455078125 L -9175.845703125 24305.2890625 C -9175.845703125 24295.537109375 -9175.498046875 24289.30859375 -9174.69140625 24284.466796875 C -9173.8173828125 24279.234375 -9172.3759765625 24275.615234375 -9170.1435546875 24273.06640625 C -9167.91015625 24270.51953125 -9164.693359375 24268.83984375 -9160.0283203125 24267.78125 C -9155.41796875 24266.736328125 -9149.380859375 24266.271484375 -9140.4541015625 24266.271484375 C -9138.7607421875 24266.271484375 -9136.978515625 24266.29296875 -9134.9970703125 24266.3203125 L -9106.421875 24266.3203125 L -9106.421875 24210.5 L -9349.72265625 24210.5 L -9349.72265625 24266.3203125 L -9315.806640625 24266.3203125 C -9313.7919921875 24266.29296875 -9311.96875 24266.271484375 -9310.2470703125 24266.271484375 C -9301.3896484375 24266.271484375 -9295.3447265625 24266.708984375 -9290.646484375 24267.693359375 C -9285.8583984375 24268.697265625 -9282.5322265625 24270.2734375 -9280.1826171875 24272.6640625 C -9277.7177734375 24275.171875 -9276.1533203125 24278.77734375 -9275.251953125 24284.0078125 C -9274.412109375 24288.90625 -9274.111328125 24295.455078125 -9274.2890625 24305.248046875 L -9274.2890625 24401.103515625 L -9462.201171875 24401.103515625 L -9462.201171875 24305.248046875 C -9462.37890625 24295.455078125 -9462.078125 24288.90625 -9461.23828125 24284.0078125 C -9460.3369140625 24278.77734375 -9458.7724609375 24275.171875 -9456.3076171875 24272.6640625 C -9453.96484375 24270.2734375 -9450.638671875 24268.697265625 -9445.84375 24267.693359375 C -9441.1455078125 24266.708984375 -9435.107421875 24266.271484375 -9426.2431640625 24266.271484375 C -9424.521484375 24266.271484375 -9422.6982421875 24266.29296875 -9420.68359375 24266.3203125 L -9386.7744140625 24266.3203125 L -9386.7744140625 24210.5 L -9512.3583984375 24210.5 L -9512.3583984375 24691.677734375 C -9510.6181640625 24691.759765625 -9508.892578125 24691.8515625 -9507.181640625 24691.953125 C -9496.240234375 24692.595703125 -9485.8251953125 24693.61328125 -9476.2294921875 24694.96484375 C -9453.71875 24698.140625 -9435.408203125 24703.208984375 -9421.8173828125 24710.009765625 L -9421.7353515625 24710.05078125 C -9406.689453125 24716.908203125 -9395.994140625 24724.318359375 -9385.9814453125 24734.830078125 C -9376.0107421875 24745.298828125 -9366.626953125 24759.041015625 -9355.8359375 24776.326171875 C -9368.2177734375 24778.7109375 -9378.509765625 24781.50390625 -9387.2041015625 24784.84375 C -9397.271484375 24788.716796875 -9405.2275390625 24793.326171875 -9411.5107421875 24798.93359375 C -9414.70703125 24801.7734375 -9417.5078125 24804.943359375 -9419.8369140625 24808.330078125 C -9422.171875 24811.732421875 -9424.1259765625 24815.48046875 -9425.6416015625 24819.484375 C -9428.6396484375 24827.384765625 -9430.0947265625 24836.482421875 -9430.0947265625 24847.30859375 C -9430.0947265625 24851.43359375 -9429.828125 24855.4140625 -9429.275390625 24859.478515625 C -9427.984375 24869.046875 -9425.123046875 24877.98046875 -9420.7724609375 24886.017578125 C -9416.4970703125 24893.9140625 -9410.8623046875 24900.82421875 -9404.025390625 24906.5546875 C -9397.189453125 24912.28515625 -9389.2802734375 24916.724609375 -9380.517578125 24919.75 C -9371.5849609375 24922.837890625 -9361.9208984375 24924.400390625 -9351.7783203125 24924.400390625 M -9420.68359375 24605.748046875 C -9422.74609375 24605.783203125 -9424.6103515625 24605.796875 -9426.3662109375 24605.796875 C -9435.4013671875 24605.796875 -9441.5205078125 24605.337890625 -9446.2060546875 24604.29296875 C -9450.9462890625 24603.248046875 -9454.203125 24601.58203125 -9456.4638671875 24599.0546875 C -9458.7177734375 24596.5546875 -9460.166015625 24592.998046875 -9461.046875 24587.875 C -9461.8525390625 24583.12890625 -9462.201171875 24577.0234375 -9462.201171875 24567.455078125 L -9462.201171875 24459.59375 L -9274.2890625 24459.59375 L -9274.2890625 24567.455078125 C -9274.2890625 24577.0234375 -9274.6376953125 24583.12890625 -9275.443359375 24587.875 C -9276.3173828125 24593.00390625 -9277.7724609375 24596.5546875 -9280.01953125 24599.0546875 C -9282.2802734375 24601.58203125 -9285.5439453125 24603.248046875 -9290.27734375 24604.29296875 C -9294.962890625 24605.337890625 -9301.0888671875 24605.796875 -9310.1240234375 24605.796875 C -9311.88671875 24605.796875 -9313.744140625 24605.783203125 -9315.806640625 24605.748046875 L -9349.72265625 24605.748046875 L -9349.72265625 24654.65625 C -9355.0908203125 24651.1796875 -9360.6435546875 24647.927734375 -9366.353515625 24644.923828125 C -9372.7119140625 24641.576171875 -9379.5751953125 24638.421875 -9386.7744140625 24635.533203125 L -9386.7744140625 24605.748046875 L -9420.68359375 24605.748046875 M -8746.353515625 27215.345703125 L -8797.1328125 27215.345703125 C -8799.89453125 27215.345703125 -8802.1328125 27213.107421875 -8802.1328125 27210.345703125 L -8802.1328125 27165.619140625 C -8802.1328125 27162.857421875 -8799.89453125 27160.619140625 -8797.1328125 27160.619140625 L -8782.9462890625 27160.619140625 C -8775.2373046875 27160.310546875 -8770.369140625 27159.828125 -8766.681640625 27159.005859375 C -8763.5693359375 27158.30859375 -8761.4580078125 27157.35546875 -8760.228515625 27156.087890625 C -8758.998046875 27154.80859375 -8758.150390625 27152.740234375 -8757.560546875 27149.57421875 C -8756.8720703125 27145.861328125 -8756.5791015625 27140.947265625 -8756.5791015625 27133.14453125 L -8756.5791015625 27023.458984375 C -8756.5791015625 27011.279296875 -8757.0439453125 27003.7890625 -8758.1318359375 26998.416015625 C -8758.1328125 26998.4140625 -8758.1328125 26998.412109375 -8758.1337890625 26998.41015625 C -8759.0830078125 26993.6875 -8760.53515625 26990.34765625 -8763.296875 26986.541015625 C -8766.36328125 26982.8125 -8770.568359375 26979.708984375 -8775.4638671875 26977.55859375 C -8778.041015625 26976.42578125 -8780.796875 26975.552734375 -8783.65625 26974.962890625 L -8783.65625 26974.962890625 C -8786.6484375 26974.349609375 -8789.744140625 26974.0390625 -8792.857421875 26974.0390625 C -8797.3369140625 26974.0390625 -8801.865234375 26974.619140625 -8806.3193359375 26975.76171875 C -8810.708984375 26976.884765625 -8815.0439453125 26978.580078125 -8819.2060546875 26980.794921875 C -8823.3701171875 26983.009765625 -8827.349609375 26985.7578125 -8831.033203125 26988.958984375 C -8834.7421875 26992.1875 -8838.1552734375 26995.88671875 -8841.17578125 26999.94921875 C -8841.2255859375 27000.01953125 -8841.2763671875 27000.08984375 -8841.330078125 27000.158203125 C -8844.419921875 27004.244140625 -8846.8515625 27008.06640625 -8848.7626953125 27011.845703125 C -8848.763671875 27011.845703125 -8848.7646484375 27011.84765625 -8848.765625 27011.849609375 C -8850.7607421875 27015.783203125 -8852.306640625 27019.88671875 -8853.4912109375 27024.39453125 C -8854.70703125 27029.041015625 -8855.568359375 27034.21875 -8856.12109375 27040.220703125 C -8856.671875 27046.1484375 -8856.939453125 27053.076171875 -8856.939453125 27061.404296875 L -8856.939453125 27133.14453125 C -8856.939453125 27140.94921875 -8856.646484375 27145.86328125 -8855.958984375 27149.57421875 L -8855.958984375 27149.57421875 C -8855.37890625 27152.685546875 -8854.505859375 27154.81640625 -8853.2900390625 27156.087890625 L -8853.2900390625 27156.087890625 C -8852.060546875 27157.35546875 -8849.947265625 27158.30859375 -8846.828125 27159.005859375 C -8843.1416015625 27159.828125 -8838.2724609375 27160.310546875 -8830.5576171875 27160.619140625 L -8816.3857421875 27160.619140625 C -8813.6240234375 27160.619140625 -8811.3857421875 27162.857421875 -8811.3857421875 27165.619140625 L -8811.3857421875 27210.345703125 C -8811.3857421875 27213.107421875 -8813.6240234375 27215.345703125 -8816.3857421875 27215.345703125 L -8990.5908203125 27215.345703125 C -8993.3525390625 27215.345703125 -8995.5908203125 27213.107421875 -8995.5908203125 27210.345703125 L -8995.5908203125 27165.619140625 C -8995.5908203125 27162.857421875 -8993.3525390625 27160.619140625 -8990.5908203125 27160.619140625 L -8969.30859375 27160.619140625 C -8961.5986328125 27160.310546875 -8956.73046875 27159.828125 -8953.0439453125 27159.005859375 C -8949.92578125 27158.30859375 -8947.8154296875 27157.35546875 -8946.595703125 27156.09375 C -8945.357421875 27154.810546875 -8944.5048828125 27152.73828125 -8943.9140625 27149.57421875 C -8943.2265625 27145.85546875 -8942.93359375 27140.94140625 -8942.93359375 27133.14453125 L -8942.93359375 27004.478515625 C -8942.93359375 26996.6875 -8943.2265625 26991.775390625 -8943.9140625 26988.056640625 L -8943.9140625 26988.056640625 C -8944.4970703125 26984.9296875 -8945.3720703125 26982.798828125 -8946.58984375 26981.54296875 C -8946.5927734375 26981.541015625 -8946.5947265625 26981.5390625 -8946.59765625 26981.53515625 C -8947.81640625 26980.2734375 -8949.9248046875 26979.322265625 -8953.0439453125 26978.626953125 C -8953.046875 26978.625 -8953.0498046875 26978.625 -8953.052734375 26978.625 C -8956.6904296875 26977.8046875 -8961.5546875 26977.3203125 -8969.3056640625 26977.00390625 L -8990.5908203125 26977.00390625 C -8993.3525390625 26977.00390625 -8995.5908203125 26974.765625 -8995.5908203125 26972.00390625 L -8995.5908203125 26949.400390625 C -9008.94921875 26948.22265625 -9021.86328125 26946.033203125 -9034.0380859375 26942.87890625 C -9048.3291015625 26939.17578125 -9061.9208984375 26934.0703125 -9074.4375 26927.703125 C -9086.958984375 26921.333984375 -9098.70703125 26913.564453125 -9109.3544921875 26904.609375 C -9119.986328125 26895.666015625 -9129.751953125 26885.35546875 -9138.3818359375 26873.96484375 C -9146.9892578125 26862.595703125 -9154.6728515625 26849.8828125 -9161.220703125 26836.1796875 C -9167.7607421875 26822.478515625 -9173.302734375 26807.501953125 -9177.693359375 26791.6640625 C -9182.0927734375 26775.810546875 -9185.4521484375 26758.673828125 -9187.6787109375 26740.73046875 C -9189.90625 26722.755859375 -9191.0361328125 26703.55078125 -9191.0361328125 26683.6484375 C -9191.0361328125 26662.904296875 -9189.806640625 26642.90234375 -9187.380859375 26624.1953125 C -9184.9609375 26605.572265625 -9181.306640625 26587.830078125 -9176.51953125 26571.458984375 C -9171.740234375 26555.099609375 -9165.7177734375 26539.716796875 -9158.6201171875 26525.7421875 C -9151.529296875 26511.76171875 -9143.1923828125 26498.8671875 -9133.84375 26487.416015625 C -9124.4931640625 26475.955078125 -9113.921875 26465.703125 -9102.423828125 26456.9453125 C -9090.9423828125 26448.1953125 -9078.26171875 26440.74609375 -9064.736328125 26434.8046875 C -9051.1943359375 26428.873046875 -9036.5625 26424.3515625 -9021.2421875 26421.369140625 C -9005.865234375 26418.37109375 -8989.435546875 26416.8515625 -8972.41015625 26416.8515625 C -8951.373046875 26416.8515625 -8933.4375 26418.55859375 -8917.5791015625 26422.072265625 C -8900.845703125 26425.775390625 -8886.1982421875 26431.50390625 -8872.798828125 26439.58203125 C -8859.396484375 26447.65625 -8847.1884765625 26458.09375 -8835.4794921875 26471.490234375 C -8829.0302734375 26478.86328125 -8822.7177734375 26487.146484375 -8816.3798828125 26496.5703125 L -8816.3798828125 26367.31640625 C -8816.3798828125 26353.27734375 -8816.9228515625 26344.37109375 -8818.1943359375 26337.5390625 C -8819.4345703125 26330.857421875 -8821.3935546875 26326.322265625 -8824.3603515625 26323.26171875 C -8827.328125 26320.193359375 -8831.8095703125 26318.072265625 -8838.4658203125 26316.58203125 C -8845.2431640625 26315.064453125 -8854.126953125 26314.1796875 -8868.169921875 26313.619140625 L -8868.873046875 26313.591796875 C -8869.8046875 26313.556640625 -8870.70703125 26313.259765625 -8871.4794921875 26312.73828125 L -8872.06640625 26312.341796875 L -8893.77734375 26297.716796875 L -9116.81640625 26297.716796875 C -9119.578125 26297.716796875 -9121.81640625 26295.478515625 -9121.81640625 26292.716796875 L -9121.81640625 26234.3359375 C -9121.81640625 26231.57421875 -9119.578125 26229.3359375 -9116.81640625 26229.3359375 L -9098.5634765625 26229.3359375 C -9087.955078125 26228.904296875 -9081.263671875 26228.236328125 -9076.2021484375 26227.1015625 C -9071.4326171875 26226.033203125 -9068.2666015625 26224.55859375 -9066.23828125 26222.4609375 C -9064.208984375 26220.365234375 -9062.849609375 26217.1640625 -9061.9580078125 26212.384765625 L -9061.9580078125 26212.384765625 C -9061.0029296875 26207.21484375 -9060.595703125 26200.46875 -9060.595703125 26189.826171875 L -9060.595703125 26042.435546875 C -9060.595703125 26025.912109375 -9061.234375 26015.697265625 -9062.7294921875 26008.27734375 L -9062.7294921875 26008.27734375 C -9063.4326171875 26004.806640625 -9064.3134765625 26001.931640625 -9065.5009765625 25999.2265625 C -9066.673828125 25996.552734375 -9068.1591796875 25994.017578125 -9070.1689453125 25991.255859375 C -9072.306640625 25988.64453125 -9074.8505859375 25986.2265625 -9077.732421875 25984.0703125 L -9077.732421875 25984.0703125 C -9080.685546875 25981.873046875 -9083.98046875 25979.96484375 -9087.525390625 25978.40234375 L -9087.525390625 25978.40234375 C -9091.1552734375 25976.810546875 -9095.0380859375 25975.58203125 -9099.0654296875 25974.751953125 C -9103.2294921875 25973.896484375 -9107.560546875 25973.462890625 -9111.93359375 25973.462890625 C -9118.1708984375 25973.462890625 -9124.474609375 25974.267578125 -9130.669921875 25975.853515625 L -9130.669921875 25975.853515625 C -9136.8017578125 25977.431640625 -9142.8193359375 25979.779296875 -9148.5546875 25982.833984375 C -9154.3369140625 25985.916015625 -9159.841796875 25989.716796875 -9164.9130859375 25994.130859375 C -9170.0830078125 25998.626953125 -9174.822265625 26003.765625 -9179.0009765625 26009.408203125 C -9179.0283203125 26009.447265625 -9179.056640625 26009.484375 -9179.0849609375 26009.521484375 C -9183.3388671875 26015.140625 -9186.7001953125 26020.423828125 -9189.361328125 26025.673828125 C -9192.126953125 26031.140625 -9194.265625 26036.82421875 -9195.8974609375 26043.046875 C -9197.5693359375 26049.41796875 -9198.7509765625 26056.509765625 -9199.5107421875 26064.73046875 C -9200.259765625 26072.841796875 -9200.623046875 26082.234375 -9200.623046875 26093.439453125 L -9200.623046875 26189.826171875 C -9200.623046875 26200.46875 -9200.2158203125 26207.216796875 -9199.2607421875 26212.384765625 L -9199.2607421875 26212.384765625 C -9198.369140625 26217.1640625 -9197.009765625 26220.365234375 -9194.9833984375 26222.45703125 C -9194.982421875 26222.458984375 -9194.9814453125 26222.458984375 -9194.98046875 26222.4609375 C -9192.9521484375 26224.55859375 -9189.7880859375 26226.033203125 -9185.0244140625 26227.1015625 C -9179.962890625 26228.236328125 -9173.271484375 26228.904296875 -9162.662109375 26229.3359375 L -9144.4091796875 26229.3359375 C -9141.6474609375 26229.3359375 -9139.4091796875 26231.57421875 -9139.4091796875 26234.3359375 L -9139.4091796875 26292.716796875 C -9139.4091796875 26295.478515625 -9141.6474609375 26297.716796875 -9144.4091796875 26297.716796875 L -9376.7822265625 26297.716796875 C -9379.5439453125 26297.716796875 -9381.7822265625 26295.478515625 -9381.7822265625 26292.716796875 L -9381.7822265625 26234.3359375 C -9381.7822265625 26231.57421875 -9379.5439453125 26229.3359375 -9376.7822265625 26229.3359375 L -9348.9873046875 26229.3359375 C -9338.37890625 26228.904296875 -9331.6875 26228.236328125 -9326.6259765625 26227.1015625 C -9321.861328125 26226.033203125 -9318.697265625 26224.55859375 -9316.6708984375 26222.4609375 C -9316.6689453125 26222.458984375 -9316.6669921875 26222.458984375 -9316.666015625 26222.45703125 C -9314.6337890625 26220.359375 -9313.275390625 26217.16015625 -9312.390625 26212.388671875 C -9311.4345703125 26207.251953125 -9311.0263671875 26200.505859375 -9311.0263671875 26189.826171875 L -9311.0263671875 26016.953125 C -9311.0263671875 26006.2734375 -9311.4345703125 25999.52734375 -9312.3896484375 25994.396484375 C -9313.275390625 25989.62109375 -9314.6337890625 25986.421875 -9316.666015625 25984.326171875 C -9316.6669921875 25984.32421875 -9316.6689453125 25984.322265625 -9316.6708984375 25984.3203125 C -9318.705078125 25982.21484375 -9321.8671875 25980.740234375 -9326.6201171875 25979.681640625 C -9326.6220703125 25979.681640625 -9326.6240234375 25979.6796875 -9326.625 25979.6796875 C -9331.7314453125 25978.53515625 -9338.4248046875 25977.8671875 -9348.9912109375 25977.4453125 L -9361.2978515625 25977.4453125 C -9361.720703125 25977.560546875 -9362.1650390625 25977.623046875 -9362.6240234375 25977.623046875 L -9512.3583984375 25977.623046875 C -9515.1201171875 25977.623046875 -9517.3583984375 25975.384765625 -9517.3583984375 25972.623046875 L -9517.3583984375 25594.517578125 C -9517.3583984375 25591.755859375 -9515.1201171875 25589.517578125 -9512.3583984375 25589.517578125 L -9447.55859375 25589.517578125 C -9444.796875 25589.517578125 -9442.55859375 25591.755859375 -9442.55859375 25594.517578125 L -9442.55859375 25628.6328125 C -9437.6904296875 25622.248046875 -9432.8564453125 25616.630859375 -9427.953125 25611.654296875 C -9424.9228515625 25608.57421875 -9421.8818359375 25605.75390625 -9418.80078125 25603.169921875 L -9421.4140625 25603.169921875 C -9424.17578125 25603.169921875 -9426.4140625 25600.931640625 -9426.4140625 25598.169921875 L -9426.4140625 25538.111328125 C -9426.4140625 25535.349609375 -9424.17578125 25533.111328125 -9421.4140625 25533.111328125 L -9394.47265625 25533.111328125 C -9383.2822265625 25532.671875 -9376.2197265625 25531.98046875 -9370.87109375 25530.802734375 C -9365.78125 25529.681640625 -9362.396484375 25528.130859375 -9360.21875 25525.916015625 C -9358.0615234375 25523.72265625 -9356.6240234375 25520.392578125 -9355.6962890625 25515.435546875 C -9354.6982421875 25510.13671875 -9354.2724609375 25503.173828125 -9354.2724609375 25492.146484375 L -9354.2724609375 25251.658203125 C -9357.0673828125 25254.20703125 -9359.888671875 25256.67578125 -9362.7158203125 25259.048828125 C -9370.0224609375 25265.177734375 -9377.708984375 25270.923828125 -9385.560546875 25276.1328125 C -9393.40234375 25281.330078125 -9401.634765625 25286.1328125 -9410.0302734375 25290.40234375 C -9418.4482421875 25294.677734375 -9427.2724609375 25298.546875 -9436.26171875 25301.904296875 C -9447.65234375 25306.16015625 -9459.759765625 25309.765625 -9472.2470703125 25312.623046875 C -9484.7314453125 25315.4765625 -9498.044921875 25317.685546875 -9511.8173828125 25319.18359375 C -9511.998046875 25319.203125 -9512.1787109375 25319.212890625 -9512.3583984375 25319.212890625 C -9513.583984375 25319.212890625 -9514.775390625 25318.76171875 -9515.697265625 25317.935546875 C -9516.7548828125 25316.986328125 -9517.3583984375 25315.6328125 -9517.3583984375 25314.212890625 L -9517.3583984375 25227.45703125 C -9517.3583984375 25225 -9515.572265625 25222.90625 -9513.1455078125 25222.51953125 C -9509.6708984375 25221.96484375 -9506.203125 25221.326171875 -9502.8388671875 25220.615234375 C -9488.58203125 25217.607421875 -9474.8486328125 25213.16015625 -9462.0224609375 25207.404296875 C -9449.263671875 25201.669921875 -9437.4296875 25194.654296875 -9426.8525390625 25186.55078125 C -9416.2021484375 25178.390625 -9406.861328125 25169.154296875 -9399.0908203125 25159.09765625 C -9393.2978515625 25151.34375 -9388.853515625 25143.541015625 -9385.1064453125 25134.548828125 C -9382.3759765625 25127.982421875 -9379.99609375 25120.869140625 -9377.3935546875 25111.42578125 C -9381.8212890625 25110.87109375 -9387.330078125 25110.48046875 -9394.474609375 25110.197265625 L -9421.4140625 25110.197265625 C -9424.17578125 25110.197265625 -9426.4140625 25107.958984375 -9426.4140625 25105.197265625 L -9426.4140625 25045.15625 C -9426.4140625 25042.39453125 -9424.17578125 25040.15625 -9421.4140625 25040.15625 L -9356.4970703125 25040.15625 C -9356.2734375 25040.125 -9356.0458984375 25040.109375 -9355.8154296875 25040.109375 L -9263.8125 25040.109375 C -9263.580078125 25040.109375 -9263.3515625 25040.125 -9263.1279296875 25040.15625 L -9245.064453125 25040.15625 C -9242.302734375 25040.15625 -9240.064453125 25042.39453125 -9240.064453125 25045.15625 L -9240.064453125 25492.146484375 C -9240.064453125 25503.142578125 -9239.642578125 25510.11328125 -9238.65234375 25515.455078125 C -9237.7275390625 25520.416015625 -9236.30859375 25523.75390625 -9234.1875 25525.95703125 L -9234.1875 25525.95703125 C -9232.0546875 25528.15625 -9228.7529296875 25529.697265625 -9223.7978515625 25530.806640625 C -9218.5517578125 25531.982421875 -9211.638671875 25532.671875 -9200.6923828125 25533.111328125 L -9172.9228515625 25533.111328125 C -9170.1611328125 25533.111328125 -9167.9228515625 25535.349609375 -9167.9228515625 25538.111328125 L -9167.9228515625 25598.169921875 C -9167.9228515625 25600.931640625 -9170.1611328125 25603.169921875 -9172.9228515625 25603.169921875 L -9279.4140625 25603.169921875 C -9273.009765625 25608.599609375 -9267.4462890625 25614.8359375 -9262.8671875 25621.716796875 C -9258.0859375 25628.89453125 -9254.3974609375 25636.75390625 -9251.9052734375 25645.078125 C -9249.359375 25653.58984375 -9248.0693359375 25662.578125 -9248.0693359375 25671.794921875 C -9248.0693359375 25682.267578125 -9249.802734375 25692.19921875 -9253.2236328125 25701.3125 C -9256.6103515625 25710.330078125 -9261.5439453125 25718.29296875 -9267.888671875 25724.984375 C -9274.27734375 25731.7265625 -9281.8935546875 25736.97265625 -9290.5244140625 25740.572265625 C -9299.3154296875 25744.25 -9308.923828125 25746.115234375 -9319.078125 25746.115234375 C -9327.9326171875 25746.115234375 -9336.205078125 25744.8203125 -9343.666015625 25742.267578125 C -9351.1845703125 25739.69921875 -9357.78125 25735.8984375 -9363.2724609375 25730.974609375 C -9368.8466796875 25725.9765625 -9373.162109375 25719.935546875 -9376.0986328125 25713.021484375 C -9379.0498046875 25706.06640625 -9380.5458984375 25698.349609375 -9380.5458984375 25690.083984375 C -9380.5458984375 25682.36328125 -9379.5576171875 25675.64453125 -9377.5234375 25669.54296875 C -9375.3779296875 25663.115234375 -9372.1455078125 25657.533203125 -9367.640625 25652.478515625 C -9367.638671875 25652.4765625 -9367.63671875 25652.474609375 -9367.634765625 25652.47265625 C -9363.2431640625 25647.564453125 -9357.783203125 25643.3125 -9350.9404296875 25639.47265625 L -9350.9404296875 25639.47265625 C -9350.072265625 25638.984375 -9349.185546875 25638.505859375 -9348.2802734375 25638.033203125 C -9352.7451171875 25637.037109375 -9357.048828125 25636.341796875 -9360.3564453125 25636.341796875 C -9364.806640625 25636.341796875 -9369.626953125 25637.21484375 -9374.6845703125 25638.9375 C -9379.8173828125 25640.68359375 -9385.05078125 25643.2578125 -9390.2412109375 25646.587890625 C -9395.52734375 25649.98046875 -9400.6083984375 25654.052734375 -9405.33984375 25658.693359375 C -9410.2138671875 25663.46875 -9414.6171875 25668.748046875 -9418.4287109375 25674.384765625 C -9422.087890625 25679.880859375 -9425.4482421875 25686.22265625 -9428.4208984375 25693.23828125 C -9431.380859375 25700.232421875 -9433.9482421875 25707.900390625 -9436.0517578125 25716.025390625 C -9438.1630859375 25724.19921875 -9439.7890625 25732.8046875 -9440.8818359375 25741.603515625 C -9441.994140625 25750.58984375 -9442.55859375 25759.755859375 -9442.55859375 25768.84375 L -9442.55859375 25869.876953125 C -9442.55859375 25880.330078125 -9442.1513671875 25886.9609375 -9441.1962890625 25892.052734375 C -9440.3017578125 25896.828125 -9438.9345703125 25900.048828125 -9436.890625 25902.193359375 C -9434.8291015625 25904.357421875 -9431.658203125 25905.884765625 -9426.9111328125 25906.998046875 C -9421.8349609375 25908.1875 -9414.9677734375 25908.90625 -9404.6572265625 25909.330078125 L -9378.3935546875 25909.330078125 C -9377.888671875 25909.158203125 -9377.3466796875 25909.064453125 -9376.7822265625 25909.064453125 L -9205.623046875 25909.064453125 C -9202.861328125 25909.064453125 -9200.623046875 25911.302734375 -9200.623046875 25914.064453125 L -9200.623046875 25961.98828125 C -9192.8876953125 25953.51953125 -9185.6044921875 25946.18359375 -9178.5458984375 25939.74609375 C -9167.130859375 25929.330078125 -9156.2451171875 25921.212890625 -9145.2666015625 25914.9296875 C -9134.2119140625 25908.607421875 -9123.025390625 25904.12109375 -9111.0654296875 25901.21484375 C -9099.669921875 25898.455078125 -9087.4716796875 25897.11328125 -9073.76953125 25897.11328125 C -9056.0927734375 25897.11328125 -9037.951171875 25900.3359375 -9021.3046875 25906.431640625 C -9004.4033203125 25912.625 -8989.9208984375 25921.458984375 -8979.4228515625 25931.978515625 C -8973.7978515625 25937.615234375 -8969.22265625 25943.7578125 -8965.4365234375 25950.759765625 C -8961.6865234375 25957.6953125 -8958.76171875 25965.3828125 -8956.494140625 25974.259765625 C -8954.2705078125 25982.974609375 -8952.6884765625 25992.79296875 -8951.66015625 26004.27734375 C -8950.681640625 26015.169921875 -8950.2060546875 26027.65234375 -8950.2060546875 26042.435546875 L -8950.2060546875 26189.826171875 C -8950.2060546875 26200.46484375 -8949.798828125 26207.2109375 -8948.8427734375 26212.384765625 L -8948.8427734375 26212.384765625 C -8947.9501953125 26217.1640625 -8946.591796875 26220.365234375 -8944.56640625 26222.45703125 C -8942.53125 26224.55859375 -8939.3642578125 26226.033203125 -8934.599609375 26227.1015625 C -8929.9873046875 26228.13671875 -8923.8525390625 26228.796875 -8914.8125 26229.224609375 C -8914.5 26229.162109375 -8914.1767578125 26229.130859375 -8913.845703125 26229.130859375 L -8746.353515625 26229.130859375 C -8743.591796875 26229.130859375 -8741.353515625 26231.369140625 -8741.353515625 26234.130859375 L -8741.353515625 27210.345703125 C -8741.353515625 27213.107421875 -8743.591796875 27215.345703125 -8746.353515625 27215.345703125 Z M -8864.619140625 26922.283203125 L -8861.939453125 26922.283203125 C -8859.177734375 26922.283203125 -8856.939453125 26924.521484375 -8856.939453125 26927.283203125 L -8856.939453125 26958.697265625 C -8850.4248046875 26951.779296875 -8844.29296875 26945.908203125 -8838.37109375 26940.91015625 C -8830.93359375 26934.638671875 -8823.7109375 26929.62890625 -8816.3798828125 26925.66015625 L -8816.3798828125 26869.99609375 C -8818.27734375 26872.8515625 -8820.1806640625 26875.61328125 -8822.1044921875 26878.306640625 C -8828.943359375 26887.875 -8835.7109375 26896.0859375 -8842.7958984375 26903.40625 C -8849.84375 26910.6875 -8856.990234375 26916.869140625 -8864.619140625 26922.283203125 Z M -8987.6728515625 26505.677734375 L -8987.6728515625 26505.677734375 C -9003.8662109375 26514.49609375 -9017.884765625 26527.474609375 -9029.337890625 26544.25390625 C -9040.58203125 26560.732421875 -9049.2578125 26580.70703125 -9055.123046875 26603.62109375 C -9060.9697265625 26626.45703125 -9063.93359375 26651.8203125 -9063.93359375 26679.009765625 C -9063.93359375 26707.814453125 -9061.0380859375 26734.275390625 -9055.328125 26757.65625 C -9049.595703125 26781.1328125 -9041.04296875 26801.404296875 -9029.91015625 26817.908203125 C -9024.31640625 26826.19921875 -9018.0068359375 26833.615234375 -9011.1552734375 26839.947265625 C -9004.23046875 26846.357421875 -8996.576171875 26851.814453125 -8988.40234375 26856.171875 C -8980.0546875 26860.62109375 -8970.9853515625 26864.0234375 -8961.4482421875 26866.28515625 C -8951.6201171875 26868.611328125 -8941.029296875 26869.791015625 -8929.970703125 26869.791015625 C -8912.5068359375 26869.791015625 -8896.47265625 26865.25390625 -8882.3134765625 26856.302734375 C -8868.5830078125 26847.609375 -8856.62109375 26834.806640625 -8846.763671875 26818.25 C -8836.9541015625 26801.78125 -8829.3623046875 26781.869140625 -8824.19921875 26759.0703125 C -8819.0107421875 26736.16015625 -8816.3798828125 26710.78515625 -8816.3798828125 26683.6484375 C -8816.3798828125 26656.4453125 -8819.0126953125 26630.7578125 -8824.2041015625 26607.298828125 C -8829.4033203125 26583.833984375 -8837.015625 26563.23046875 -8846.8291015625 26546.06640625 C -8856.779296875 26528.677734375 -8868.7734375 26515.216796875 -8882.4755859375 26506.05859375 C -8896.6494140625 26496.580078125 -8912.62890625 26491.775390625 -8929.970703125 26491.775390625 C -8940.7587890625 26491.775390625 -8951.1767578125 26492.986328125 -8960.935546875 26495.375 C -8970.337890625 26497.68359375 -8979.3349609375 26501.15234375 -8987.6728515625 26505.677734375 Z M -9351.7783203125 24929.400390625 C -9362.4794921875 24929.400390625 -9372.69921875 24927.744140625 -9382.1513671875 24924.474609375 C -9391.4912109375 24921.25 -9399.9326171875 24916.509765625 -9407.2373046875 24910.38671875 C -9414.55859375 24904.25 -9420.5927734375 24896.8515625 -9425.1689453125 24888.3984375 C -9429.80859375 24879.828125 -9432.857421875 24870.322265625 -9434.23046875 24860.146484375 C -9434.8115234375 24855.869140625 -9435.0947265625 24851.669921875 -9435.0947265625 24847.30859375 C -9435.0947265625 24835.865234375 -9433.53125 24826.18359375 -9430.31640625 24817.7109375 C -9428.666015625 24813.3515625 -9426.52734375 24809.2421875 -9423.9599609375 24805.5 C -9423.958984375 24805.5 -9423.9580078125 24805.498046875 -9423.95703125 24805.49609375 C -9421.384765625 24801.7578125 -9418.3173828125 24798.294921875 -9414.83984375 24795.203125 L -9414.83984375 24795.203125 C -9408.1015625 24789.189453125 -9399.6484375 24784.2734375 -9388.9990234375 24780.177734375 C -9381.7587890625 24777.396484375 -9373.5029296875 24774.994140625 -9363.9140625 24772.884765625 C -9371.9560546875 24760.263671875 -9380.5517578125 24747.78125 -9389.6025390625 24738.279296875 C -9394.4169921875 24733.22265625 -9399.39453125 24728.939453125 -9404.8193359375 24725.1796875 C -9410.2763671875 24721.3984375 -9416.48828125 24717.9375 -9423.8095703125 24714.599609375 C -9423.8291015625 24714.591796875 -9423.8486328125 24714.58203125 -9423.8681640625 24714.572265625 L -9423.9091796875 24714.5546875 C -9423.9716796875 24714.5234375 -9424.033203125 24714.494140625 -9424.0947265625 24714.4609375 C -9437.2138671875 24707.904296875 -9454.98828125 24703.01171875 -9476.927734375 24699.916015625 C -9486.4404296875 24698.576171875 -9496.71875 24697.576171875 -9507.474609375 24696.9453125 C -9509.138671875 24696.845703125 -9510.8603515625 24696.75390625 -9512.5947265625 24696.671875 C -9515.26171875 24696.546875 -9517.3583984375 24694.34765625 -9517.3583984375 24691.677734375 L -9517.3583984375 24210.5 C -9517.3583984375 24207.73828125 -9515.1201171875 24205.5 -9512.3583984375 24205.5 L -9386.7744140625 24205.5 C -9384.0126953125 24205.5 -9381.7744140625 24207.73828125 -9381.7744140625 24210.5 L -9381.7744140625 24266.3203125 C -9381.7744140625 24269.08203125 -9384.0126953125 24271.3203125 -9386.7744140625 24271.3203125 L -9420.68359375 24271.3203125 C -9420.7060546875 24271.3203125 -9420.728515625 24271.3203125 -9420.7509765625 24271.3203125 C -9422.955078125 24271.2890625 -9424.642578125 24271.271484375 -9426.2431640625 24271.271484375 C -9434.74609375 24271.271484375 -9440.474609375 24271.677734375 -9444.818359375 24272.587890625 C -9448.6064453125 24273.380859375 -9451.1220703125 24274.517578125 -9452.736328125 24276.1640625 C -9452.73828125 24276.166015625 -9452.740234375 24276.16796875 -9452.7412109375 24276.16796875 C -9454.4560546875 24277.912109375 -9455.58984375 24280.673828125 -9456.310546875 24284.857421875 C -9457.0986328125 24289.44921875 -9457.3740234375 24295.7109375 -9457.2021484375 24305.158203125 C -9457.201171875 24305.1875 -9457.201171875 24305.216796875 -9457.201171875 24305.248046875 L -9457.201171875 24396.103515625 L -9279.2890625 24396.103515625 L -9279.2890625 24305.248046875 C -9279.2890625 24305.216796875 -9279.2880859375 24305.1875 -9279.2880859375 24305.158203125 C -9279.1162109375 24295.7109375 -9279.3916015625 24289.44921875 -9280.1796875 24284.853515625 C -9280.900390625 24280.673828125 -9282.0341796875 24277.9140625 -9283.7490234375 24276.169921875 C -9285.37109375 24274.517578125 -9287.888671875 24273.380859375 -9291.6728515625 24272.5859375 C -9296.0146484375 24271.677734375 -9301.744140625 24271.271484375 -9310.2470703125 24271.271484375 C -9311.84765625 24271.271484375 -9313.53515625 24271.2890625 -9315.7392578125 24271.3203125 C -9315.76171875 24271.3203125 -9315.7841796875 24271.3203125 -9315.806640625 24271.3203125 L -9349.72265625 24271.3203125 C -9352.484375 24271.3203125 -9354.72265625 24269.08203125 -9354.72265625 24266.3203125 L -9354.72265625 24210.5 C -9354.72265625 24207.73828125 -9352.484375 24205.5 -9349.72265625 24205.5 L -9106.421875 24205.5 C -9103.66015625 24205.5 -9101.421875 24207.73828125 -9101.421875 24210.5 L -9101.421875 24266.3203125 C -9101.421875 24269.08203125 -9103.66015625 24271.3203125 -9106.421875 24271.3203125 L -9134.9970703125 24271.3203125 C -9135.0205078125 24271.3203125 -9135.04296875 24271.3203125 -9135.0654296875 24271.3203125 C -9136.841796875 24271.294921875 -9138.720703125 24271.271484375 -9140.4541015625 24271.271484375 C -9148.9970703125 24271.271484375 -9154.693359375 24271.69921875 -9158.9228515625 24272.658203125 C -9163.6357421875 24273.7265625 -9165.4384765625 24275.28515625 -9166.384765625 24276.36328125 C -9167.9716796875 24278.17578125 -9169.044921875 24281.013671875 -9169.759765625 24285.291015625 C -9170.5205078125 24289.859375 -9170.845703125 24295.83984375 -9170.845703125 24305.2890625 L -9170.845703125 24567.455078125 C -9170.845703125 24576.705078125 -9170.521484375 24582.560546875 -9169.76171875 24587.037109375 C -9169.056640625 24591.212890625 -9167.9970703125 24593.982421875 -9166.427734375 24595.75390625 C -9165.4833984375 24596.8203125 -9163.6845703125 24598.359375 -9158.9873046875 24599.4140625 C -9158.984375 24599.416015625 -9158.98046875 24599.416015625 -9158.9775390625 24599.416015625 C -9154.7666015625 24600.37109375 -9149.09375 24600.796875 -9140.583984375 24600.796875 C -9138.7392578125 24600.796875 -9136.939453125 24600.78125 -9135.083984375 24600.748046875 C -9135.0546875 24600.748046875 -9135.0263671875 24600.748046875 -9134.9970703125 24600.748046875 L -9106.421875 24600.748046875 C -9103.66015625 24600.748046875 -9101.421875 24602.986328125 -9101.421875 24605.748046875 L -9101.421875 24661.58203125 C -9101.421875 24664.34375 -9103.66015625 24666.58203125 -9106.421875 24666.58203125 L -9325.2822265625 24666.58203125 C -9322.119140625 24669.2578125 -9319.04296875 24672.01953125 -9316.072265625 24674.8515625 C -9302.3759765625 24687.91015625 -9290.54296875 24702.78125 -9280.9013671875 24719.05078125 C -9261.9423828125 24751.048828125 -9251.9208984375 24787.755859375 -9251.9208984375 24825.19921875 C -9251.9208984375 24840.3671875 -9254.3232421875 24854.5625 -9259.060546875 24867.390625 C -9263.7470703125 24880.080078125 -9270.6240234375 24891.216796875 -9279.5009765625 24900.4921875 C -9288.3857421875 24909.78125 -9299.0791015625 24916.984375 -9311.2822265625 24921.90234375 C -9323.61328125 24926.876953125 -9337.2392578125 24929.400390625 -9351.7783203125 24929.400390625 Z M -9381.7744140625 24632.177734375 C -9375.546875 24634.77734375 -9369.5888671875 24637.5703125 -9364.0244140625 24640.5 C -9360.89453125 24642.146484375 -9357.78515625 24643.880859375 -9354.72265625 24645.6875 L -9354.72265625 24605.748046875 C -9354.72265625 24602.986328125 -9352.484375 24600.748046875 -9349.72265625 24600.748046875 L -9315.806640625 24600.748046875 C -9315.7783203125 24600.748046875 -9315.7490234375 24600.748046875 -9315.720703125 24600.748046875 C -9313.833984375 24600.78125 -9312.0029296875 24600.796875 -9310.1240234375 24600.796875 C -9301.4423828125 24600.796875 -9295.6572265625 24600.369140625 -9291.3662109375 24599.412109375 C -9291.3623046875 24599.412109375 -9291.359375 24599.412109375 -9291.35546875 24599.41015625 C -9287.6923828125 24598.6015625 -9285.2744140625 24597.4296875 -9283.7470703125 24595.720703125 C -9283.744140625 24595.71875 -9283.7412109375 24595.71484375 -9283.73828125 24595.7109375 C -9282.1494140625 24593.9453125 -9281.080078125 24591.1875 -9280.3720703125 24587.03515625 C -9279.61328125 24582.5625 -9279.2890625 24576.705078125 -9279.2890625 24567.455078125 L -9279.2890625 24464.59375 L -9457.201171875 24464.59375 L -9457.201171875 24567.455078125 C -9457.201171875 24576.705078125 -9456.876953125 24582.5625 -9456.1171875 24587.037109375 C -9455.4013671875 24591.19921875 -9454.3310546875 24593.953125 -9452.75 24595.70703125 C -9452.74609375 24595.7109375 -9452.7412109375 24595.716796875 -9452.7373046875 24595.720703125 C -9451.2080078125 24597.431640625 -9448.7900390625 24598.603515625 -9445.12890625 24599.41015625 C -9445.125 24599.41015625 -9445.1220703125 24599.412109375 -9445.1171875 24599.412109375 C -9440.826171875 24600.369140625 -9435.04296875 24600.796875 -9426.3662109375 24600.796875 C -9424.4873046875 24600.796875 -9422.65625 24600.78125 -9420.76953125 24600.748046875 C -9420.7412109375 24600.748046875 -9420.7119140625 24600.748046875 -9420.68359375 24600.748046875 L -9386.7744140625 24600.748046875 C -9384.0126953125 24600.748046875 -9381.7744140625 24602.986328125 -9381.7744140625 24605.748046875 L -9381.7744140625 24632.177734375 Z" stroke="none" fill="red"/></g></svg>