<svg xmlns="http://www.w3.org/2000/svg" width="156.113" height="157.41" viewBox="0 0 156.113 157.41">
  <path id="Subtraction_33" data-name="Subtraction 33" d="M-7614.888,24363.412v0h-99.983l-56.13-56.129V24206h87.351l68.763,68.971v88.439Zm-138.889-94.641h0a20.874,20.874,0,0,0,2.138,9.553,20.255,20.255,0,0,0,6.416,7.262,30.655,30.655,0,0,0,10.149,4.592,53.269,53.269,0,0,0,13.336,1.529,49.349,49.349,0,0,0,12.968-1.553,27.576,27.576,0,0,0,9.662-4.658,21.233,21.233,0,0,0,6.006-7.008,18.618,18.618,0,0,0,2-8.6,18.3,18.3,0,0,0-1.71-8.086,15.637,15.637,0,0,0-5.132-5.916c-2.928-2.068-7.324-3.744-13.066-4.979l-13.17-2.836c-5.053-1.084-8.4-2.037-9.948-2.836a6.856,6.856,0,0,1-2.724-2.281,5.708,5.708,0,0,1-.908-3.209,6.969,6.969,0,0,1,3.681-6.232c2.442-1.484,5.756-2.236,9.851-2.236a22.227,22.227,0,0,1,9.282,1.723,10.416,10.416,0,0,1,4.3,3.5,10.447,10.447,0,0,1,1.709,5.291h15.347a21.97,21.97,0,0,0-2.443-9.635,19.778,19.778,0,0,0-6.5-7.045,32.326,32.326,0,0,0-9.416-4.307,41.756,41.756,0,0,0-11.19-1.436,47.991,47.991,0,0,0-12.712,1.521,25.033,25.033,0,0,0-9.214,4.568,20.6,20.6,0,0,0-5.6,6.875,19.051,19.051,0,0,0-1.867,8.43,18.814,18.814,0,0,0,1.931,8.76,15.535,15.535,0,0,0,5.792,6.08c3.023,1.881,8.569,3.65,16.484,5.262l8.089,1.625a38.434,38.434,0,0,1,10.419,3.209,5.8,5.8,0,0,1,3.32,5.258,7.367,7.367,0,0,1-1.673,4.891,10.628,10.628,0,0,1-5.017,3.059,31.167,31.167,0,0,1-9.178,1.119,26.95,26.95,0,0,1-8.049-1.059,11.918,11.918,0,0,1-5.274-3.174,13.3,13.3,0,0,1-2.849-7.025Z" transform="translate(7771.001 -24206.002)"/>
</svg>
